<svg width="544" height="363" viewBox="0 0 544 363" fill="none" xmlns="http://www.w3.org/2000/svg">
<path d="M334.472 238.945C400.455 238.945 453.945 185.455 453.945 119.472C453.945 53.4896 400.455 0 334.472 0C268.49 0 215 53.4896 215 119.472C215 185.455 268.49 238.945 334.472 238.945Z" fill="#DBE8EC"/>
<path d="M543.354 171.555V153.364C543.354 151.646 543.015 149.945 542.358 148.358C541.701 146.772 540.737 145.33 539.523 144.115C538.308 142.901 536.866 141.937 535.28 141.28C533.693 140.623 531.992 140.284 530.274 140.284H494.108C490.639 140.284 487.313 138.906 484.86 136.453C482.407 134 481.029 130.674 481.029 127.205V109.014C481.029 101.79 496.885 95.9342 504.108 95.9342H505.566C509.035 95.9342 512.362 94.5562 514.815 92.1033C517.267 89.6504 518.645 86.3236 518.645 82.8547V64.6636C518.645 61.1947 517.267 57.8679 514.815 55.415C512.362 52.9621 509.035 51.5841 505.566 51.5841H63.6588C61.9412 51.5841 60.2404 51.9224 58.6535 52.5797C57.0667 53.237 55.6248 54.2005 54.4103 55.415C53.1957 56.6295 52.2323 58.0714 51.575 59.6583C50.9177 61.2451 50.5794 62.9459 50.5794 64.6636V82.8547C50.5794 84.5723 50.9177 86.2731 51.575 87.86C52.2323 89.4469 53.1957 90.8887 54.4103 92.1033C55.6248 93.3178 57.0667 94.2812 58.6535 94.9386C60.2404 95.5959 61.9412 95.9342 63.6588 95.9342C65.3765 95.9342 67.0773 96.2725 68.6641 96.9298C70.251 97.5871 71.6929 98.5505 72.9074 99.765C74.1219 100.98 75.0854 102.421 75.7427 104.008C76.4 105.595 76.7383 107.296 76.7383 109.014V127.205C76.7383 130.674 75.3603 134 72.9074 136.453C70.4545 138.906 67.1277 140.284 63.6588 140.284H13.0794C9.61056 140.284 6.28375 141.662 3.83088 144.115C1.37801 146.568 0 149.895 0 153.364V171.555C0 175.024 1.37801 178.351 3.83088 180.803C6.28375 183.256 9.61056 184.634 13.0794 184.634H32.926C34.6437 184.634 36.3445 184.973 37.9313 185.63C39.5182 186.287 40.9601 187.251 42.1746 188.465C43.3891 189.68 44.3526 191.122 45.0099 192.708C45.6672 194.295 46.0055 195.996 46.0055 197.714V215.905C46.0055 219.374 44.6275 222.701 42.1746 225.154C39.7217 227.606 36.3949 228.984 32.926 228.984H32.878C29.4092 228.984 26.0824 230.362 23.6295 232.815C21.1766 235.268 19.7986 238.595 19.7986 242.064V260.255C19.7986 263.724 21.1766 267.051 23.6295 269.504C26.0824 271.956 29.4092 273.334 32.8781 273.334H35.7495C39.2183 273.334 42.5452 274.712 44.998 277.165C47.4509 279.618 48.8289 282.945 48.8289 286.414V304.605C48.8289 306.323 48.4906 308.024 47.8333 309.61C47.176 311.197 46.2126 312.639 44.998 313.854C43.7835 315.068 42.3416 316.032 40.7547 316.689C39.1679 317.346 37.4671 317.685 35.7495 317.685H18.625C15.1561 317.685 11.8293 319.063 9.3764 321.515C6.92353 323.968 5.54551 327.295 5.5455 330.764V348.955C5.5455 352.424 6.92351 355.751 9.37638 358.204C11.8293 360.657 15.1561 362.035 18.625 362.035H502.588C506.057 362.035 509.384 360.657 511.837 358.204C514.289 355.751 515.667 352.424 515.667 348.955V330.764C515.667 327.295 514.289 323.968 511.837 321.515C509.384 319.063 506.057 317.685 502.588 317.685H491.247C489.53 317.685 487.829 317.346 486.242 316.689C484.655 316.032 483.213 315.068 481.999 313.854C480.784 312.639 479.821 311.197 479.164 309.61C478.506 308.024 478.168 306.323 478.168 304.605V286.414C478.168 282.945 479.546 279.618 481.999 277.165C484.452 274.712 487.779 273.334 491.247 273.334H517.987C521.456 273.334 524.783 271.956 527.236 269.504C529.689 267.051 531.067 263.724 531.067 260.255V242.064C531.067 240.346 530.728 238.645 530.071 237.059C529.414 235.472 528.45 234.03 527.236 232.815C526.021 231.601 524.579 230.637 522.993 229.98C521.406 229.323 519.705 228.984 517.987 228.984H509.876C508.158 228.984 506.457 228.646 504.87 227.989C503.284 227.332 501.842 226.368 500.627 225.154C499.413 223.939 498.449 222.497 497.792 220.91C497.135 219.323 496.796 217.623 496.796 215.905V197.714C496.796 194.245 498.174 190.918 500.627 188.465C503.08 186.012 506.407 184.634 509.876 184.634H530.274C531.992 184.634 533.693 184.296 535.28 183.639C536.866 182.981 538.308 182.018 539.523 180.803C540.737 179.589 541.701 178.147 542.358 176.56C543.015 174.973 543.354 173.272 543.354 171.555Z" fill="#D9ECEC"/>
<path d="M410.739 68.5472C359.783 67.6851 308.984 53.1458 262.905 26.001C216.869 53.1458 166.071 67.6851 115.104 68.5472C104.717 179.427 138.275 312.847 262.905 362.416C387.579 312.847 421.01 179.427 410.739 68.5472Z" fill="#4A92C3"/>
<path d="M376.024 98.0559C337.034 97.3962 298.164 86.2711 262.906 65.5006C227.68 86.2711 188.81 97.3962 149.812 98.0559C141.864 182.898 167.541 284.988 262.906 322.917C358.302 284.988 383.883 182.898 376.024 98.0559Z" fill="#DBE8EC"/>
<path d="M244.031 177.004V151.309C244.031 148.733 244.542 146.182 245.534 143.804C246.525 141.426 247.978 139.268 249.809 137.455C251.639 135.642 253.811 134.209 256.198 133.24C258.585 132.271 261.141 131.784 263.717 131.808H265.86C268.437 131.783 270.993 132.269 273.38 133.238C275.768 134.207 277.94 135.639 279.771 137.453C281.601 139.266 283.054 141.424 284.046 143.803C285.037 146.181 285.547 148.733 285.546 151.309V159.965C285.551 160.546 285.783 161.101 286.192 161.513C286.601 161.924 287.156 162.159 287.736 162.167L298.103 162.214C298.393 162.215 298.68 162.159 298.949 162.048C299.217 161.938 299.461 161.776 299.666 161.572C299.872 161.368 300.035 161.124 300.147 160.857C300.258 160.589 300.316 160.302 300.316 160.012V152.742C300.317 148.281 299.439 143.865 297.732 139.744C296.024 135.624 293.521 131.881 290.365 128.729C287.21 125.577 283.464 123.078 279.341 121.375C275.219 119.672 270.802 118.799 266.341 118.805H263.236C258.777 118.801 254.361 119.676 250.24 121.38C246.12 123.083 242.375 125.583 239.221 128.734C236.067 131.886 233.565 135.629 231.858 139.748C230.151 143.867 229.272 148.283 229.273 152.742V177.691L244.031 177.004Z" fill="#EF601B"/>
<path d="M305.221 250.889C307.816 250.882 310.303 249.849 312.138 248.014C313.973 246.179 315.006 243.692 315.013 241.097V185.408C315.006 182.813 313.973 180.326 312.138 178.491C310.303 176.656 307.816 175.622 305.221 175.616H224.368C221.773 175.622 219.286 176.656 217.451 178.491C215.616 180.326 214.583 182.813 214.576 185.408V241.097C214.583 243.692 215.616 246.179 217.451 248.014C219.286 249.849 221.773 250.882 224.368 250.889H305.221Z" fill="#F9AE2B"/>
<path d="M264.795 194.718C262.015 194.727 259.352 195.836 257.386 197.802C255.421 199.768 254.313 202.431 254.304 205.211C254.352 206.789 254.762 208.336 255.501 209.731C256.24 211.126 257.29 212.333 258.569 213.259V225.573C258.569 227.224 259.225 228.807 260.393 229.975C261.56 231.142 263.144 231.798 264.795 231.798C266.446 231.798 268.029 231.142 269.197 229.975C270.364 228.807 271.02 227.224 271.02 225.573V213.259C272.297 212.331 273.345 211.124 274.085 209.729C274.824 208.334 275.234 206.789 275.285 205.211C275.276 202.431 274.168 199.768 272.203 197.802C270.238 195.836 267.574 194.727 264.795 194.718Z" fill="#EE781D"/>
<path d="M65.4468 164.932H95.7674" stroke="#54B6B1" stroke-opacity="0.8" stroke-width="3" stroke-miterlimit="10"/>
<path d="M65.4468 173.671H95.7674" stroke="#54B6B1" stroke-opacity="0.8" stroke-width="3" stroke-miterlimit="10"/>
<path d="M65.4468 182.41H95.7674" stroke="#54B6B1" stroke-opacity="0.8" stroke-width="3" stroke-miterlimit="10"/>
<path d="M433.394 198.07H463.715" stroke="#54B6B1" stroke-opacity="0.8" stroke-width="3" stroke-miterlimit="10"/>
<path d="M433.394 206.809H463.715" stroke="#54B6B1" stroke-opacity="0.8" stroke-width="3" stroke-miterlimit="10"/>
<path d="M433.394 215.549H463.715" stroke="#54B6B1" stroke-opacity="0.8" stroke-width="3" stroke-miterlimit="10"/>
<path d="M390.301 344.171C398.817 344.171 405.721 337.267 405.721 328.751C405.721 320.235 398.817 313.331 390.301 313.331C381.785 313.331 374.881 320.235 374.881 328.751C374.881 337.267 381.785 344.171 390.301 344.171Z" fill="#54B6B1" fill-opacity="0.8"/>
<path d="M368.738 313.895C373.173 313.895 376.77 310.299 376.77 305.863C376.77 301.427 373.173 297.831 368.738 297.831C364.302 297.831 360.706 301.427 360.706 305.863C360.706 310.299 364.302 313.895 368.738 313.895Z" fill="#54B6B1" fill-opacity="0.8"/>
<path d="M387.435 289.277C389.994 289.277 392.068 287.202 392.068 284.644C392.068 282.085 389.994 280.011 387.435 280.011C384.877 280.011 382.802 282.085 382.802 284.644C382.802 287.202 384.877 289.277 387.435 289.277Z" fill="#54B6B1" fill-opacity="0.8"/>
<path d="M408.984 310.039C415.118 310.039 420.091 305.067 420.091 298.933C420.091 292.799 415.118 287.826 408.984 287.826C402.85 287.826 397.878 292.799 397.878 298.933C397.878 305.067 402.85 310.039 408.984 310.039Z" fill="#54B6B1" fill-opacity="0.8"/>
<path d="M94.1646 319.902C102.681 319.902 109.585 312.998 109.585 304.482C109.585 295.966 102.681 289.062 94.1646 289.062C85.6485 289.062 78.7448 295.966 78.7448 304.482C78.7448 312.998 85.6485 319.902 94.1646 319.902Z" fill="#54B6B1" fill-opacity="0.8"/>
<path d="M72.6013 289.626C77.0372 289.626 80.6333 286.03 80.6333 281.594C80.6333 277.158 77.0372 273.562 72.6013 273.562C68.1654 273.562 64.5693 277.158 64.5693 281.594C64.5693 286.03 68.1654 289.626 72.6013 289.626Z" fill="#54B6B1" fill-opacity="0.8"/>
<path d="M91.2991 265.007C93.8578 265.007 95.9321 262.933 95.9321 260.374C95.9321 257.816 93.8578 255.741 91.2991 255.741C88.7403 255.741 86.666 257.816 86.666 260.374C86.666 262.933 88.7403 265.007 91.2991 265.007Z" fill="#54B6B1" fill-opacity="0.8"/>
<path d="M112.848 285.77C118.982 285.77 123.955 280.797 123.955 274.663C123.955 268.529 118.982 263.557 112.848 263.557C106.714 263.557 101.742 268.529 101.742 274.663C101.742 280.797 106.714 285.77 112.848 285.77Z" fill="#54B6B1" fill-opacity="0.8"/>
</svg>
