<?xml version="1.0" encoding="UTF-8"?>
<svg xmlns="http://www.w3.org/2000/svg" id="a" width="865.76" height="682.89" viewBox="0 0 865.76 682.89">
  <path d="M675.31,70.47v206.86c0,7.86-6.36,14.22-14.22,14.23H372.69c-7.86,0-14.23-6.37-14.23-14.23h0V70.47c0-7.86,6.37-14.23,14.23-14.23h288.4c7.86,0,14.22,6.37,14.22,14.23h0Z" fill="#4A92C3" stroke="#002346" stroke-miterlimit="10"></path>
  <path d="M675.31,70.47v14.78H358.46v-14.78c0-7.86,6.37-14.23,14.23-14.23h288.4c7.86,0,14.22,6.37,14.22,14.23h0Z" fill="#4A92C3" stroke="#002346" stroke-miterlimit="10"></path>
  <rect x="488.41" y="133.05" width="159.54" height="112.54" rx="9.04" ry="9.04" fill="#fff" stroke="#002346" stroke-miterlimit="10"></rect>
  <rect x="594.18" y="147.34" width="22.23" height="78.77" fill="#C2E3F3" stroke="#002346" stroke-miterlimit="10"></rect>
  <rect x="554.95" y="166.71" width="22.23" height="59.39" fill="#e6e7e8" stroke="#002346" stroke-miterlimit="10"></rect>
  <rect x="517.47" y="191.81" width="22.23" height="34.3" fill="#4A92C3" stroke="#002346" stroke-miterlimit="10"></rect>
  <path d="M466.65,181.11s-2.55,6.7-1.91,22c0,0-.59,21-5.54,36.82h0c-1.86,6-4.35,11.26-7.67,14.41-1.19,1.1-3.04,1.03-4.14-.15-.27-.29-.48-.63-.61-1-.84-2.26-1.69-6.14-2.13-12.8,0,0-1.59-38.57-10.19-39.84,0,0-8-1-8,23.26l.3,30.67c.02,1.71-1.25,3.17-2.95,3.39-2.38,.3-5.84-.21-9.07-4.2-1.85-2.43-3.28-5.17-4.21-8.08,0,0-3.76-9.54-6.59-25.87-1.1-6.49-1.73-13.06-1.91-19.64-.19-5.38-1.36-14.12-6.49-20.88,0,0-10.83-14.46-7-35.7,1.41-8.47,7.89-15.19,16.3-16.91,1.96-.37,3.96-.53,5.95-.49,2.56,.08,5.1,.5,7.55,1.27,3.52,1,11.26,2.45,21.8-.76,0,0,35.69-10.19,36.32,17.21,.06,0-.25,17.18-9.81,37.29h0Z" fill="#f1f2f2" stroke="#002346" stroke-miterlimit="10"></path>
  <path d="M463.23,175.69c3.14-16.42-3.98-19.8-10.52-19.75-4.8,.02-9.32,1.91-9.32,1.91-4.58,1.45-8.02,1.89-10.57,1.85-2.55-.05-4.18-.6-5.13-1.1-1.47-.78-3.02-1.42-4.61-1.91-2.94-.84-5.44-1.2-7.59-1.18-17.45,.06-10.67,25.28-10.67,25.28,.73,3.21,1.26,6.48,1.73,9.67-.08-.62-.18-1.43-.27-2.38,.13,.8,.25,1.59,.36,2.38v.99c.01,.12,.03,.24,.06,.36,1.05,7.66,1.69,15.36,1.91,23.09,1.07,13.06,3.11,26.01,6.12,38.76,3.23,3.99,6.69,4.5,9.07,4.2,1.7-.22,2.97-1.68,2.95-3.39l-.3-30.67c0-24.26,8-23.26,8-23.26,8.6,1.27,10.19,39.84,10.19,39.84,.44,6.7,1.3,10.59,2.14,12.85,.14,.35,.34,.67,.59,.95,1.11,1.19,2.97,1.25,4.16,.14,3.31-3.14,5.8-8.4,7.66-14.4,1.52-11.57,2.1-23.24,1.72-34.9v-5.79c.1-7.9,.87-15.77,2.32-23.54h0Z" fill="#4A92C3" stroke="#002346" stroke-miterlimit="10"></path>
  <path d="M423.84,258.12c-.08,0-.16-.03-.2-.1-.06-.09-6.35-9.36-7.5-29.15-.45-8.97,.32-17.97,2.29-26.73,2-9.13,4.34-25.85-2.42-35.28-.08-.11-.06-.27,.05-.35h0c.1-.08,.26-.06,.34,.04,0,0,0,0,.01,.02,6.88,9.59,4.53,26.47,2.51,35.67-1.97,8.72-2.74,17.67-2.28,26.6,1.14,19.64,7.35,28.8,7.41,28.89,.08,.11,.05,.27-.06,.35h0s-.1,.04-.15,.04Z" fill="none" stroke="#002346" stroke-linecap="round" stroke-linejoin="round"></path>
  <path d="M416.78,214.08c-.1,0-.19-.06-.23-.15-.05-.11-4.48-10.87,.36-19.1,.59-.96,1.36-1.79,2.27-2.44,3.11-2.3,5.31-5.62,6.21-9.39,.17-.86,.27-1.74,.3-2.62,.1-2.31,.76-7.83,4.74-9.2,.13-.05,.27,.02,.32,.15,.04,.13-.03,.27-.16,.32-3.79,1.31-4.33,7-4.4,8.75-.03,.91-.14,1.82-.31,2.71-.92,3.89-3.18,7.33-6.4,9.7-.86,.61-1.59,1.39-2.14,2.29-4.72,8-.37,18.55-.33,18.65,.05,.13,0,.27-.13,.33h-.1Z" fill="none" stroke="#002346" stroke-linecap="round" stroke-linejoin="round"></path>
  <path d="M420.71,182.63c-.14,0-.25-.11-.25-.25,.14-5.51-3.99-10.19-9.47-10.74-.14,0-.24-.13-.23-.27h0c.02-.14,.14-.24,.28-.23,.09,0,9.61,1,9.92,11.23,0,.14-.1,.25-.24,.26h-.01Z" fill="none" stroke="#002346" stroke-linecap="round" stroke-linejoin="round"></path>
  <path d="M449.1,255.34h-.06c-.13-.03-.21-.16-.18-.29h0c.06-.25,6-23.8-.29-44.56-.57-1.84-1.29-3.63-2.15-5.35-2.78-5.66-8.41-20.59-.57-36.79,.04-.13,.18-.2,.32-.16s.2,.18,.16,.32c0,.02-.01,.04-.02,.05-7.74,16-2.18,30.76,.57,36.36,.87,1.75,1.6,3.56,2.17,5.43,6.32,20.9,.36,44.58,.3,44.81-.03,.11-.13,.18-.24,.18h-.01Z" fill="none" stroke="#002346" stroke-linecap="round" stroke-linejoin="round"></path>
  <path d="M442.71,192.86s-.09,0-.14,0c-6.21-4.22-5.62-9-5.59-9.18,.03-.13,.15-.22,.28-.21,.13,.02,.23,.15,.21,.28,0,0-.56,4.66,5.38,8.69,.11,.08,.14,.23,.07,.35-.06,.05-.13,.08-.21,.07Z" fill="none" stroke="#002346" stroke-linecap="round" stroke-linejoin="round"></path>
  <path d="M447.85,208c-.1,0-.19-.06-.23-.15-.12-.26-2.78-6.58,2.16-16.12,0-.06,2.7-4.56,0-13.18,0,0-1.39-3.39,1.84-4.84,.13-.06,.27,0,.33,.13h0c.06,.13,0,.27-.13,.33h0c-2.78,1.24-1.62,4.09-1.57,4.21,2.79,8.88,.1,13.41,0,13.6-4.82,9.29-2.17,15.61-2.14,15.67,.05,.13,0,.27-.13,.33l-.13,.02h0Z" fill="none" stroke="#002346" stroke-linecap="round" stroke-linejoin="round"></path>
  <path d="M451.24,185.55s-.09,0-.14,0c-3.37-2.16-5.95-6.45-6.06-6.63-.08-.11-.06-.27,.06-.35,.11-.08,.27-.06,.35,.06,.01,0,.02,.03,.03,.04,0,0,2.63,4.37,5.9,6.45,.12,.08,.15,.23,.08,.35-.05,.06-.13,.09-.21,.08h0Z" fill="none" stroke="#002346" stroke-linecap="round" stroke-linejoin="round"></path>
  <circle cx="619.14" cy="69.05" r="4.83" fill="#f1f2f2" stroke="#002346" stroke-miterlimit="10"></circle>
  <circle cx="637.28" cy="69.05" r="4.83" fill="#f1f2f2" stroke="#002346" stroke-miterlimit="10"></circle>
  <circle cx="655.42" cy="69.05" r="4.83" fill="#f1f2f2" stroke="#002346" stroke-miterlimit="10"></circle>
  <path d="M245.46,302.68l-43.7-55.37s13.2-13.53,29.32-15.43c5.22-.53,10.25-2.24,14.71-5,2.6-1.66,5.01-3.6,7.2-5.78l42.52,54.5s-1.88,10.1-25.37,15c0,.04-14.58,2.27-24.68,12.08h0Z" fill="#C2E3F3" stroke="#002346" stroke-miterlimit="10"></path>
  <path d="M245.46,302.68s11.28-7.91,31.48-7.39c0,0,16-.66,20-9.12l-5-5.16s-5.32,6.34-21.76,9.63c-.05,0-14.85,2.7-24.72,12.04h0Z" fill="#f1f2f2" stroke="#002346" stroke-miterlimit="10"></path>
  <path d="M82.55,617.12s-2,6.66,1.73,7.52c0,0,28.57,7.07,27.11-5.32l-10.26-2.2h-18.58Z" fill="#002346" stroke="#0d2445" stroke-miterlimit="10"></path>
  <path d="M111.53,615.9s.44,3.05,3,2.94c0,0,6.15,.86,5-5.53l-8,2.59Z" fill="#002346" stroke="#0d2445" stroke-miterlimit="10"></path>
  <path d="M172.39,621.89c-7.65-2.14-27-1.65-27-1.65v-4.57s16.57,0,25.34,2.2c1.53,.39,3.1,.68,4.67,.85,4.67,.45,14.35,1.16,22.34,.15,1.97,8.59-25.35,3.02-25.35,3.02h0Z" fill="#002346" stroke="#0d2445" stroke-miterlimit="10"></path>
  <path d="M87.99,406.92l8.64,196s12.62-11.63,23.92,0v-10.81c-.05-2.12,.69-4.18,2.08-5.78,1.23-1.33,2.45-4.43,1.91-11.63,0,0-1.07-5.32,.13-14,0,0,2.52-21.26,2.86-42.52l4.23-76.6c.05-.83,.74-1.48,1.57-1.48h0c.84,0,1.53,.66,1.57,1.5l6,139.65c.16,3.09,.68,6.14,1.54,9.11,.54,1.91,.87,4.23,0,5.89,0,0-4,8.31,3,10.63l21.55-7.88s3.08-2.13,1.44-8c-.53-1.99-.38-4.1,.43-6,.77-1.84,1.13-4.93-.56-9.93-.83-2.38-1.19-4.9-1.06-7.42l10-168-8.4-10.65-80.85,17.92h0Z" fill="#C2E3F3" stroke="#002346" stroke-miterlimit="10"></path>
  <path d="M96.58,602.94c-1.54,3.34-4.23,6.02-7.59,7.53-1.47,.69-2.83,1.62-4,2.75-3.14,3-5.81,8,9.26,9.65,0,0,19.27,4.32,17.28-7,0,0,7.31,2.14,8-2.59l1-10.37s-9.54-11.44-23.95,.03h0Z" fill="#4A92C3" stroke="#002346" stroke-miterlimit="10"></path>
  <path d="M197.76,618.87c-8,1-17.67,.3-22.34-.15-1.57-.17-3.14-.46-4.67-.85-8.77-2.2-25.34-2.2-25.34-2.2v-8.75l21.6-8c1.01,2.03,2.46,3.81,4.26,5.19,3.97,3.14,8.81,4.98,13.86,5.3,12.44,1.04,12.63,9.46,12.63,9.46h0Z" fill="#4A92C3" stroke="#002346" stroke-miterlimit="10"></path>
  <path d="M110.22,280.81s4.81,19.47,8.48,43.94l8.48,39.86,1.5,35s16.87,2.53,33.38,0l-20.8-121.88-20-2-11.04,5.08h0Z" fill="#f1f2f2" stroke="#002346" stroke-miterlimit="10"></path>
  <polygon points="112.34 258.23 112.34 272.81 127.18 285.08 130.87 285.08 134.45 277.69 134.45 269.58 128.23 256.96 114.29 247.76 112.34 255.66 112.34 258.23" fill="#f2b3c1" stroke="#002346" stroke-miterlimit="10"></polygon>
  <path d="M228.31,304.51s.05,.05,.04,.09l-7.35,28.07-5.93,22.68c-9.22,42.96-33.37,24.26-35.88,22.18-.06-.05-.14,0-.12,.08,3.59,9.92,4.58,22.61,4.65,23.54,0,.03-.02,.06-.05,.07l-21.92,7.55s-.09-.01-.1-.06l-20.38-130.81s.03-.09,.08-.09c33.71,3.27,46.47,46.23,47.31,49.21,.02,.06,.1,.07,.14,.01l20.05-32.79s.06-.05,.1-.03l19.35,10.3h.01Z" fill="#4A92C3" stroke="#002346" stroke-miterlimit="10"></path>
  <polygon points="141.26 277.72 157.86 300.75 153.35 314.04 163.08 319.26 157.18 379.96 141.26 277.72" fill="#f1f2f2" stroke="#002346" stroke-miterlimit="10"></polygon>
  <path d="M112.34,272.81l-2.12,8,9.9,14.48s6.29-5.23,7.06-10.21l-14.84-12.27h0Z" fill="#C2E3F3" stroke="#002346" stroke-miterlimit="10"></path>
  <path d="M211.1,295.29l4.76-12.4s0-10.68,1.41-14.71c.92-2.58,1.51-5.27,1.75-8l.21-2.33c.08-1,.91-1.76,1.91-1.76h.08c1.06,0,1.92,.86,1.92,1.92h0v9.01c0,1.67,.66,3.28,1.85,4.45,1.91,1.88,5.82,4.42,4.71,11.19,0,0,2.42,3,3.56,4.51,.13,.17-.29,.51-.36,.7-.31,.79-1.36,2.8-4.54,4.52l-1.73,11.18-15.53-8.28h0Z" fill="#f2b3c1" stroke="#002346" stroke-miterlimit="10"></path>
  <path d="M128.68,295.29l6.55,74.85,11.09,13.2,5.85-13.51-17.72-75.94,.78-5.32-4.36-3.49h-3.69c-.61,2.14-1.63,4.15-3,5.91l4.5,4.3Z" fill="#C2E3F3" stroke="#002346" stroke-miterlimit="10"></path>
  <path d="M140.57,227.26s1.86,14.37-.82,17.93l-1.34-6.83c-.7-2.04-1.81-3.93-3.24-5.55,0,0,4.06-1.76,5.4-5.55h0Z" fill="#002346" stroke="#0d2445" stroke-miterlimit="10"></path>
  <rect x="114.44" y="227.94" width="25.48" height="38.73" rx="11.46" ry="11.46" transform="translate(-45.19 29.08) rotate(-11.09)" fill="#f2b3c1" stroke="#002346" stroke-miterlimit="10" stroke-width="1"></rect>
  <path d="M106.66,229.06s-14.81,1.65-.93,21.82l7.76,3.29c1.31,.56,2.29,1.71,2.62,3.1,1.48,6.27,6.54,11.07,12.88,12.2,2.8,.69,5.76,.33,8.32-1,2.64-1.45,4.48-4.03,5-7,0,0,2.86-9.95-5.72-8-2.96,.68-5.79,1.86-8.36,3.48-2.64,1.77-6.06,1.88-8.82,.3-1.99-1.17-3.15-3.36-3-5.66,.04-1.04,.28-2.06,.71-3,1.42-3.47,.93-7.43-1.29-10.45,0,0-2.15-3.57,1.43-3.45,0,0,19.21,3.5,23.42-7.29,.86-2.12,.78-4.5-.23-6.55-1.56-3.17-5.55-7.36-15.73-6.26-4.62,.42-8.95,2.42-12.27,5.66-2.47,2.54-4.44,5.53-5.79,8.81h0Z" fill="#002346" stroke="#0d2445" stroke-miterlimit="10"></path>
  <circle cx="110.22" cy="253.48" r="5.2" fill="#f2b3c1" stroke="#002346" stroke-miterlimit="10"></circle>
  <path d="M112.34,270s-6,6.11-19.76,10.38c0,0-25.64,5.46-27.3,29,0,0-11.39,62.44,10.45,88.07,0,0,3.79,4.51,8.54,5.94l.72,13.44s38.46-3.32,44.63-6.65c0,0-.23-38.93-1.42-45.57l16.38-31.81s-13.65-4.28-17.39-16.38l-7.06,8.07s-7.45-39.41-9.9-43.68l2.12-8v-2.81h-.01Z" fill="#4A92C3" stroke="#002346" stroke-miterlimit="10"></path>
  <path d="M112.34,270v2.86l-2.12,8c1.57,3.58,2.65,8.92,4.67,17.68,2.09,9.08,3.87,17.76,5.23,26l-9.9,10.92s-11.23-10.46-5.3-15.72c0,0,7.6-4.51,4.28-8.55l-6.74-6.09c-1.69-1.53-2.45-3.83-2-6.06,1.53-7.48,5.63-24.29,11.88-29.04Z" fill="#f1f2f2" stroke="#002346" stroke-miterlimit="10"></path>
  <path d="M149.32,307.42c-.2,0-.39-.12-.47-.31-.1-.26,.02-.55,.28-.65h0l5.93-2.38c.26-.1,.54,.03,.65,.28s0,.54-.26,.64h0l-5.94,2.37c-.06,.03-.12,.04-.18,.04h0Z" fill="#f7a48b"></path>
  <path d="M146.88,314.35c-.28,.04-.53-.15-.57-.43-.04-.28,.15-.53,.43-.57l5.29-1.71c.26-.09,.54,.06,.63,.32,.08,.26-.06,.54-.32,.63l-5.29,1.71-.16,.05h0Z" fill="#f7a48b"></path>
  <path d="M165.23,297.85c-.42-.73-1.3-1.05-2.12-.89l-3.4,.68-.46-.82c-.51-.9-1.57-1.34-2.57-1.07l-6.66,1.83-2.95,.82c-.49,.14-1,.18-1.51,.17-5.76-.12-7.02,2.43-7.02,2.43l-11.36,15.42c1.62,5.18,5.05,9.59,9.68,12.42,1.84-2.25,3.97-4.25,6.35-5.92,.28-.2,.6-.33,.94-.4,10.78-2.46,8.05-10.38,8.05-10.38,2.89-1.3,4.25-4.64,3.08-7.59l9.07-4c.69-.31,1.13-.99,1.14-1.74,0-.33-.09-.66-.26-.96h0Z" fill="#f2b3c1" stroke="#002346" stroke-miterlimit="10"></path>
  <g opacity=".2">
    <path d="M129.29,295.64c-.23,0-.43-.16-.48-.38-.06-.27,.1-.54,.36-.61l4.56-1.1c.27-.06,.54,.1,.61,.37,.06,.27-.1,.54-.37,.6l-4.56,1.11h-.12Z"></path>
  </g>
  <path d="M144.57,332.8s.09-4.09-4.61-7.36c-1.12,1.06-2.17,2.19-3.13,3.4,2.34,1.75,4.96,3.08,7.74,3.96Z" fill="#4A92C3" stroke="#002346" stroke-miterlimit="10"></path>
  <path d="M695.84,612.28s-9.9,5.56-4.69,9.53c0,0,7.22,3.67,17.3-3.21,0,0,13.4-8.22,8.76-11.45l-21.37,5.13Z" fill="#002346" stroke="#0d2445" stroke-miterlimit="10"></path>
  <path d="M779.08,621.72c-.64,.72-1.53,1.16-2.49,1.22-9.18,.87-19.09-6-19.09-6-7.18-4.5-4.51-8.94-4.51-8.94h0l.1,.82c.11,.95,.55,1.83,1.24,2.5,4.83,4.65,11.59,6.71,18.19,5.55,0,0,4.06-1.33-.3-4.68,8.43,5.05,8.05,8.08,6.86,9.53h0Z" fill="#002346" stroke="#0d2445" stroke-miterlimit="10"></path>
  <path d="M767.19,368l16.14,40.89c.46,1.13,.7,2.33,.71,3.55-.03,2.39,1.25,4.6,3.34,5.75l7.61,5.11s2.45,.25,0-3.18c2.68,1.45,5.23,3.12,7.63,5,.21,.18,.52,.16,.71-.04,.09-.1,.13-.23,.12-.37-.05-1.68-1.06-5.48-7.24-12.17,0,0-4.65-3.19-5.14-7.6l-9.81-44.27-14.07,7.33h0Z" fill="#f2b3c1" stroke="#002346" stroke-miterlimit="10"></path>
  <path d="M693.91,342.86l-46.14-1.52c-1.37-.03-2.73-.17-4.07-.43-1.62-.38-3.33-.01-4.66,1-.81,.66-1.68,1.26-2.59,1.78-1.26,.71-2.57,1.34-3.9,1.9-.28,.14-.39,.48-.25,.75,.05,.11,.14,.19,.25,.25,.93,.38,2.58,.54,5.31-.73-.64,4.49-3.68,8.26-7.92,9.85,0,0-9.37,2.48-3.56,4.88,0,0,.33,3.1,6.63,0,4.5-2.95,8.64-6.4,12.35-10.3,.58-.64,1.47-.92,2.32-.71,6,1.43,29.47,6.91,40.73,7.55-.03,.07,8-.44,5.5-14.27h0Z" fill="#f2b3c1" stroke="#002346" stroke-miterlimit="10"></path>
  <path d="M708.69,265.64c-.62,2.03-1.45,4-2.47,5.87-.56,.9-.96,1.89-1.21,2.92-.42,1.81-.41,4.11,2.22,4.21,0,0,.42,10.88,9,9.84,0,0,2.36,2.5,6.26,.6v-15.08l-13.8-8.36h0Z" fill="#002346" stroke="#0d2445" stroke-miterlimit="10"></path>
  <path d="M722.44,284.1v7l-3.08,.73,7.18,11.17,13.88-13.9c-.69-.61-1.23-1.37-1.57-2.22l-3.16-12.88s-2.7,10-13.25,10.1h0Z" fill="#f2b3c1" stroke="#002346" stroke-miterlimit="10"></path>
  <path d="M771.91,368.43c-4.47,.55-7.88-1.54-10.47-4.73-6.14-7.58-7.64-21.44-7.64-21.44-.85,16.43,2.59,26.65,4.6,31.1,.41,.93,0,2.03-.94,2.44-.24,.11-.5,.16-.76,.16h-58.77c-.18,0-.28-.2-.18-.34,4.25-5.93,4.5-17.66,4.5-17.66l-13.88-.79c7.8-2.25,4.63-14.41,4.63-14.41l.85-.26c1.1-.34,1.93-1.25,2.16-2.38l3.6-18c3.17-22.47,19.73-30.29,19.73-30.29l9.87,2.67,11.2-5.47c26.53,3,30,17,30,17l.2,.85,9.7,40s6.67,19.7-8.41,21.55h.01Z" fill="#4A92C3" stroke="#002346" stroke-miterlimit="10"></path>
  <path d="M697.5,376c-5.13,11.74-7.2,24.59-6,37.34l6.57,144.77h28.13v-140.83l20,143.69h25.07l-1.34-135.77c-.03-3.01-.26-6.02-.7-9-1.32-9.09-5-27.84-13.86-40.26l-57.87,.06h0Z" fill="#C2E3F3" stroke="#002346" stroke-miterlimit="10"></path>
  <path d="M704.77,558.07l.74,45.65c.02,.89-.42,1.72-1.15,2.22-2.95,1.97-5.79,4.08-8.52,6.34-.84,.72-.94,1.98-.22,2.82,.11,.13,.24,.24,.38,.34,1.33,1,3.66,1.9,7.48,1.23,2.28-.43,4.45-1.32,6.38-2.6l5.22-3.4c1.21-.78,2-2.08,2.13-3.52l4.53-49.08h-16.97Z" fill="#f2b3c1" stroke="#002346" stroke-miterlimit="10"></path>
  <path d="M772.49,616.9c-6.6,1.16-13.36-.9-18.19-5.55-.69-.67-1.13-1.55-1.24-2.5l-.07-.85-6-47h15.9l-.15,42.15c0,1.28,.6,2.48,1.62,3.25l6.94,5.19c.34,.23,.64,.45,.92,.66,4.33,3.32,.27,4.65,.27,4.65h0Z" fill="#f2b3c1" stroke="#002346" stroke-miterlimit="10"></path>
  <rect x="708.69" y="242.09" width="27.49" height="42.01" rx="13.74" ry="13.74" fill="#f2b3c1" stroke="#002346" stroke-miterlimit="10"></rect>
  <path d="M708.69,261.94c-2.29-2.37-2.98-5.85-1.79-8.92,0,0-6.27-11.28,4.38-14.57,2.6-.38,5.23-.38,7.83,0,3.22,.57,6.53,.48,9.71-.28,0,0,7.21-2.23,13.94,6.39,0,0,4.54,7.83,9.87,10.34,0,0,8.61,4.07,8.61,7,0,0-2.66,.47-2,2.82,0,0,12.21,3.92,6.42,19.34,0,0-1.72-5.87-5.48-6,0,0,1.25,8.78-7.21,8.93,0,0-3.16-2.37-4.65,.37-.36,.73-.9,1.35-1.56,1.81-1.84,1.2-5.42,2.59-7.88-2.33l-3.19-12.84c.17-.63,.3-1.27,.39-1.92,2.06,.47,4.17-.56,5.07-2.47,.6-1.21,.65-2.63,.14-3.88-.11-.25-.24-.48-.4-.7,0,0-1.46,3.91-4.7,3.19-.2-1.88-1.46-3.47-3.24-4.1,0,0-5.13-1-5.66-7.75,0,0-11.78,4.44-13.9-10.88-3.06,2.56-4.79,6.36-4.7,10.35v6.1Z" fill="#002346" stroke="#0d2445" stroke-miterlimit="10"></path>
  <path d="M350.99,504.48c-1.94,3.22-2.92,6.93-2.85,10.69,.44,21.77,.16,95.75-23.48,97.36,0,0-8.81,1.88-12-40.32,0,0-1.89-44.73-20.8-42.84h-14.43s-7.49-1.68-13.13,19l-7.15,45.1s-2.25,22.73-15.41,19.07c0,0-19.27-14.26-17.4-100.67,.06-2.57-.73-5.09-2.23-7.18-3.86-5.36-11.21-19.11-12.32-46.92,0,0-7.14-45.49,26.69-53.76,0,0,15.08-5.85,29.3,4.33,.49,.34,.95,.72,1.42,1.08,2.68,2.09,16.51,11.66,34.77,3.29,3.94-1.81,8-3.43,11.58-5.81l.2-.12c5.62-3.76,18.75-9.68,34.05,2.8,9.06,7.54,14.99,18.19,16.62,29.86,2.24,14.96,2.11,39.22-13.43,65.04h0Z" fill="#f1f2f2" stroke="#002346" stroke-miterlimit="10"></path>
  <path d="M350.99,504.48c-1.94,3.22-2.92,6.93-2.85,10.69,.44,21.77,.16,95.75-23.48,97.36,22.8-39.22,.52-105,.52-105,34.61-77.53,5.59-96.14-11.65-100.59l.2-.12c5.62-3.76,18.75-9.68,34.05,2.8,9.06,7.54,14.99,18.19,16.62,29.86,2.26,14.92,2.13,39.18-13.41,65h0Z" fill="#d1d3d4" stroke="#002346" stroke-miterlimit="10"></path>
  <path d="M490.72,507.63c-1.93,3.23-2.92,6.93-2.84,10.69,.44,21.77,.16,95.74-23.48,97.36,0,0-8.81,1.88-12-40.32,0,0-1.9-44.74-20.8-42.84h-14.45s-7.49-1.69-13.13,19l-7.15,45.1s-2.25,22.72-15.41,19.07c0,0-19.27-14.27-17.4-100.67,.06-2.57-.73-5.09-2.24-7.18-3.86-5.36-11.21-19.11-12.31-46.92,0,0-7.14-45.49,26.69-53.76,0,0,15.08-5.85,29.29,4.33,.49,.34,1,.71,1.42,1.08,2.69,2.09,16.52,11.66,34.77,3.28,3.95-1.8,8-3.42,11.59-5.8l.19-.13c5.62-3.75,18.76-9.67,34.06,2.81,9.06,7.54,14.98,18.19,16.61,29.86,2.25,14.96,2.12,39.21-13.41,65.04h0Z" fill="#f1f2f2" stroke="#002346" stroke-miterlimit="10"></path>
  <path d="M490.72,507.63c-1.93,3.23-2.92,6.93-2.84,10.69,.44,21.77,.16,95.74-23.48,97.36,22.8-39.22,.52-105,.52-105,34.61-77.52,5.58-96.14-11.65-100.58l.19-.13c5.62-3.75,18.76-9.67,34.06,2.81,9.06,7.54,14.98,18.19,16.61,29.86,2.25,14.91,2.12,39.16-13.41,64.99h0Z" fill="#d1d3d4" stroke="#002346" stroke-miterlimit="10"></path>
  <path d="M629.99,504.27c-1.96,3.23-2.97,6.95-2.9,10.73,.44,21.77,.16,95.74-23.48,97.36,0,0-8.81,1.88-12-40.33,0,0-1.9-44.73-20.8-42.83h-14.45s-7.49-1.69-13.13,19l-7.15,45.11s-2.25,22.72-15.41,19.06c0,0-19.27-14.26-17.4-100.66,.05-2.58-.73-5.1-2.24-7.19-3.85-5.35-11.21-19.1-12.31-46.91,0,0-7.14-45.49,26.69-53.76,0,0,15.08-5.85,29.3,4.32,.49,.35,.95,.72,1.42,1.09,2.68,2.09,16.51,11.66,34.77,3.28,3.94-1.81,8-3.42,11.58-5.81l.2-.12c5.62-3.75,18.75-9.67,34,2.81,9.06,7.54,14.98,18.19,16.62,29.86,2.29,14.92,2.16,39.17-13.31,64.99h0Z" fill="#f1f2f2" stroke="#002346" stroke-miterlimit="10"></path>
  <path d="M629.99,504.27c-1.96,3.23-2.97,6.95-2.9,10.73,.44,21.77,.16,95.74-23.48,97.36,22.8-39.22,.52-105.05,.52-105.05,34.61-77.53,5.59-96.14-11.65-100.59l.2-.12c5.62-3.75,18.75-9.67,34,2.81,9.06,7.54,14.98,18.19,16.62,29.86,2.29,14.93,2.16,39.18-13.31,65h0Z" fill="#d1d3d4" stroke="#002346" stroke-miterlimit="10"></path>
  <path d="M557,450.91h-15.05c-6.74,0-12.21,5.47-12.21,12.21v9.43l-88.09,2.53v-6.58c0-6.74-5.47-12.21-12.21-12.21h-15.05c-6.74,0-12.21,5.47-12.21,12.21v7.71l-106.3,3.05v-5.91c0-6.74-5.47-12.21-12.21-12.21h-15.05c-6.74,0-12.21,5.47-12.21,12.21v21.91c0,6.74,5.47,12.21,12.21,12.21h15.05c6.74,0,12.21-5.47,12.21-12.21v-8.89l106.3-3.23v7.25c0,6.74,5.47,12.21,12.21,12.21h15.05c6.74,0,12.21-5.47,12.21-12.21v-8.45l88.09-2.68v5.75c0,6.74,5.47,12.21,12.21,12.21h15.05c6.74,0,12.21-5.47,12.21-12.21v-21.91c0-6.74-5.47-12.21-12.21-12.21v.02Z" fill="#4A92C3" stroke="#002346" stroke-miterlimit="10"></path>
  <rect x="538.01" y="460.31" width="24.43" height="26.69" rx="5.57" ry="5.57" fill="#f1f2f2" stroke="#002346" stroke-miterlimit="10"></rect>
  <rect x="409.45" y="465.69" width="24.43" height="26.69" rx="5.57" ry="5.57" fill="#f1f2f2" stroke="#002346" stroke-miterlimit="10"></rect>
  <rect x="497.94" y="226.11" width="136.26" height="3.18" fill="#f1f2f2" stroke="#002346" stroke-miterlimit="10"></rect>
  <path d="M95.67,348.7l-14.48,14.24s-17.22,16.68-3.2,36.66" fill="#4A92C3" stroke="#002346" stroke-linecap="round" stroke-linejoin="round"></path>
  <path d="M128.2,364.61s-20.17,42.09-43.93,38.78" fill="#4A92C3" stroke="#002346" stroke-linecap="round" stroke-linejoin="round"></path>
  <line x1="178.97" y1="377.35" x2="172.51" y2="351.08" fill="none" stroke="#002346" stroke-linecap="round" stroke-linejoin="round"></line>
  <line x1="188.8" y1="327.03" x2="182.73" y2="338.23" fill="none" stroke="#002346" stroke-linecap="round" stroke-linejoin="round"></line>
  <line x1="159.7" y1="297.64" x2="148.81" y2="301.53" fill="none" stroke="#002346" stroke-linecap="round" stroke-linejoin="round"></line>
  <path d="M130.87,285.08l9.19,7.36,1.2-14.72s-.51-5.1-6.81-8.14v8.11l-3.58,7.39h0Z" fill="#C2E3F3" stroke="#002346" stroke-miterlimit="10"></path>
  <rect x="264.68" y="470.55" width="24.43" height="26.69" rx="5.57" ry="5.57" fill="#f1f2f2" stroke="#002346" stroke-miterlimit="10"></rect>
  <path d="M626.38,360.59s7.22-1.94,11.68-9.22" fill="none" stroke="#002346" stroke-linecap="round" stroke-linejoin="round"></path>
  <path d="M702.26,357.96s.75-1.12,0-13" fill="none" stroke="#002346" stroke-linecap="round" stroke-linejoin="round"></path>
  <line x1="787.51" y1="413.08" x2="794.99" y2="420.12" fill="none" stroke="#002346" stroke-linecap="round" stroke-linejoin="round"></line>
  <circle cx="737.16" cy="267.65" r="4.56" fill="#f2b3c1" stroke="#002346" stroke-miterlimit="10"></circle>
</svg>
