<?xml version="1.0" encoding="UTF-8"?>
<svg xmlns="http://www.w3.org/2000/svg" id="a" width="865.76" height="682.89" viewBox="0 0 865.76 682.89">
  <g>
    <path d="M162.02,330.45c-.23,0-.43-.16-.49-.39l-9.27-39.71c-.94-4.04,0-8.22,2.57-11.48s6.44-5.12,10.59-5.12c.28,0,.5,.22,.5,.5s-.22,.5-.5,.5c-3.84,0-7.42,1.73-9.81,4.74-2.39,3.01-3.26,6.88-2.38,10.63l9.27,39.71c.06,.27-.1,.54-.37,.6-.04,0-.08,.01-.11,.01Z" fill="#0d2445"></path>
    <g>
      <g>
        <path d="M358.44,298.09l4.33,17.34,3.25,20.59,4.33,4.33,8.67-6.5-2.17-4.33v-20.29c0-.89-.35-1.73-.98-2.36l-6.81-6.81c-.56-.56-1.33-.88-2.12-.88l-4.42-.72,12.17,15.89-2.17,2.17-8.67-10.84s2.17-6.5-5.42-7.58Z" fill="#f2b3c1"></path>
        <path d="M370.31,341l-4.76-4.76-3.28-20.75-4.51-18.01,.74,.11c1.52,.22,2.77,.66,3.74,1.32l-.88-1.15,5.66,.92h.02c.85,0,1.72,.36,2.37,1.02l6.81,6.81c.72,.72,1.12,1.69,1.12,2.71v20.17l2.3,4.6-9.35,7.01Zm-3.82-5.23l3.91,3.91,7.99-5.99-2.03-4.07v-20.41c0-.76-.29-1.47-.83-2.01l-6.81-6.81c-.47-.47-1.1-.73-1.77-.73l-3.26-.52,11.67,15.24-2.87,2.87-9.19-11.48,.08-.26s.8-2.49-.43-4.47c-.72-1.17-2.02-1.95-3.85-2.34l4.15,16.59,3.23,20.47Zm-2.08-30.21l8.16,10.2,1.46-1.46-9.7-12.67c.56,1.66,.25,3.3,.08,3.94Z" fill="#002346"></path>
      </g>
      <g>
        <path d="M362.77,315.42l2.14,13.5c-8-1.35-9.44-7.51-8.83-13.43s3.45-12,3.45-12l3.25,11.92Z" fill="#f2b3c1"></path>
        <path d="M365.51,329.53l-.69-.12c-6.87-1.16-10.06-5.99-9.25-13.97,.63-6.14,3.38-11.92,3.49-12.16l.58-1.21,3.61,13.26,2.25,14.19Zm-6.1-24.53c-.85,2.04-2.4,6.26-2.84,10.55-.74,7.2,1.86,11.49,7.73,12.75l-2.02-12.77-2.87-10.53Z" fill="#002346"></path>
      </g>
    </g>
    <g>
      <path d="M367.02,343.45l3.5,7,17-12-4.23-6.77c-.41-.66-1.31-.83-1.93-.36l-13.95,10.46c-.52,.39-.68,1.09-.39,1.66Z" fill="#fff"></path>
      <path d="M370.34,351.2l-3.76-7.52c-.4-.79-.17-1.76,.54-2.29l13.95-10.46c.41-.31,.93-.43,1.44-.33,.5,.09,.95,.4,1.22,.83l4.48,7.17-17.86,12.61Zm11.82-19.64c-.18,0-.35,.06-.5,.17l-13.95,10.46c-.32,.24-.43,.68-.25,1.04l3.24,6.48,16.14-11.39-3.98-6.37c-.13-.2-.32-.33-.56-.38-.05,0-.1-.01-.16-.01Z" fill="#002346"></path>
    </g>
    <g>
      <g>
        <circle cx="496.27" cy="201.98" r="14.31" fill="#002346"></circle>
        <path d="M500.97,216.07c-7.77,2.6-16.2-1.61-18.8-9.38s1.61-16.2,9.38-18.8,16.2,1.61,18.8,9.38-1.61,16.2-9.38,18.8Zm-9.07-27.14c-7.19,2.4-11.09,10.21-8.69,17.41s10.21,11.09,17.41,8.69c7.19-2.4,11.09-10.21,8.69-17.41s-10.21-11.09-17.41-8.69Z" fill="#0d2445"></path>
      </g>
      <g>
        <circle cx="491.07" cy="212.94" r="11" fill="#C2E3F3"></circle>
        <path d="M494.73,223.9c-6.04,2.02-12.6-1.25-14.62-7.3-2.02-6.04,1.25-12.6,7.3-14.62s12.6,1.25,14.62,7.3c2.02,6.04-1.25,12.6-7.3,14.62Zm-6.98-20.87c-5.47,1.83-8.43,7.76-6.6,13.23s7.76,8.43,13.23,6.6,8.43-7.76,6.6-13.23-7.76-8.43-13.23-6.6Z" fill="#002346"></path>
      </g>
    </g>
    <g>
      <path d="M594.59,363.37l-17.63-6.55s-4.57-1,0-6.53l17.69-31.22c.98-1.75,2.83-2.83,4.84-2.83h49.8c1.03,0,2.05,.19,3,.59l14.22,5.91-49,.42s-3.27-1.33-6.26,4.38l-15.88,31.27s-1.72,1.42-.78,4.56Z" fill="#fff"></path>
      <path d="M595.36,364.19l-18.57-6.9h0s-1.68-.39-2.2-1.91c-.48-1.4,.19-3.22,1.99-5.41l17.64-31.15c1.07-1.9,3.09-3.08,5.27-3.08h49.8c1.06,0,2.17,.21,3.19,.63l16.48,6.85-51.55,.44-.09-.04c-.11-.04-2.91-1.04-5.63,4.15l-15.92,31.36-.08,.07c-.06,.05-1.44,1.28-.62,4.03l.29,.96Zm53.98-47.45h-49.85c-1.82,0-3.51,.99-4.4,2.58l-17.69,31.22c-1.59,1.94-2.22,3.48-1.87,4.51,.34,1,1.53,1.28,1.54,1.28l16.82,6.25c-.4-2.44,.74-3.75,1.07-4.07l15.84-31.19c2.9-5.54,6.15-4.85,6.79-4.65l46.46-.4-11.96-4.97c-.88-.37-1.81-.55-2.76-.55Z" fill="#002346"></path>
    </g>
    <g>
      <path d="M595.04,358.41l17-32.39c1.06-2.02,3.16-3.28,5.44-3.28h49c3.27,0,5.92,2.64,5.93,5.91v6.89l-25.5-5.55-30.4,4.58s-5.39-1.24-5.88,7.19l-1.31,22.23h-10.78s-6.87,1.89-3.5-5.58Z" fill="#e6e7e8"></path>
      <path d="M596.88,364.71c-.92,0-1.98-.2-2.64-.98-.93-1.08-.81-2.94,.35-5.52v-.03s17.01-32.39,17.01-32.39c1.15-2.19,3.4-3.55,5.87-3.55h49.02c1.71,0,3.32,.67,4.53,1.87,1.21,1.21,1.88,2.82,1.89,4.54v7.51l-26.02-5.66-30.4,4.58-.09-.02c-.06-.01-1.55-.33-2.93,.72-1.38,1.05-2.17,3.07-2.34,6.01l-1.34,22.7h-11.19c-.22,.06-.92,.21-1.73,.21Zm-1.39-6.07c-.97,2.15-1.14,3.69-.5,4.44,.78,.91,2.73,.62,3.42,.44l.13-.02h10.31l1.28-21.76c.19-3.26,1.12-5.54,2.76-6.77,1.55-1.16,3.21-.98,3.63-.9l30.41-4.58,24.98,5.44v-6.25c0-1.47-.57-2.83-1.59-3.85-1.02-1.02-2.38-1.58-3.83-1.58h-49.02c-2.1,0-4.01,1.15-4.98,3.01l-16.99,32.38Z" fill="#002346"></path>
    </g>
    <g>
      <path d="M561.51,365.88h0c12.24,0,22.17,9.93,22.17,22.17v22.13c0,12.24-9.93,22.17-22.17,22.17h0v-66.47h0Z" fill="#e6e7e8"></path>
      <path d="M561.51,432.85h-.5v-67.47h.5c12.5,0,22.67,10.17,22.67,22.67v22.13c0,12.5-10.17,22.67-22.67,22.67Zm.5-66.46v65.46c11.72-.27,21.17-9.88,21.17-21.66v-22.13c0-11.78-9.45-21.4-21.17-21.66Z" fill="#002346"></path>
    </g>
    <g>
      <path d="M469.06,126.35l18.62,.45h40.94c9.07,0,16.43,7.36,16.43,16.43v173l16.46-1.41,.65-164.65c.08-21.24-17.06-38.52-38.3-38.6-.05,0-.1,0-.15,0h-46l-88.69-71.62h-34.87v17h27.87l87.04,69.4Z" fill="#fff"></path>
      <path d="M544.55,316.78V143.23c0-8.78-7.15-15.93-15.93-15.93h-40.94l-18.8-.45-.13-.11-86.9-69.29h-28.2v-18h35.55l.14,.11,88.55,71.51h45.97c21.48,.08,38.88,17.62,38.8,39.1l-.65,165.11-17.46,1.5Zm-15.93-190.48c9.34,0,16.93,7.59,16.93,16.93v172.46l15.46-1.32,.65-164.19c.08-20.93-16.88-38.02-37.8-38.1h-46.33l-.14-.11-88.55-71.51h-34.2v16h27.55l.14,.11,86.91,69.3,18.45,.45h40.93Z" fill="#002346"></path>
    </g>
    <g>
      <path d="M467.36,352.32h94.14v264.44c0,1.4-1.14,2.54-2.54,2.54h-91.6V352.32Z" fill="#fff"></path>
      <path d="M558.96,619.8h-92.1V352.3h.5v-.48h94.64v264.94c0,1.68-1.36,3.04-3.04,3.04Zm-91.1-1h91.1c1.12,0,2.04-.92,2.04-2.04V352.82h-93.14v265.98Z" fill="#002346"></path>
    </g>
    <g>
      <path d="M244.3,496.99h27.57v21.77h-10.52c-10.47,0-18.96-8.49-18.96-18.96v-.95c.03-1.04,.87-1.86,1.91-1.86Z" fill="#fff"></path>
      <path d="M272.37,519.26h-11.02c-10.73,0-19.46-8.73-19.46-19.46v-.95c.03-1.33,1.09-2.36,2.41-2.36h28.07v22.77Zm-28.07-21.77c-.77,0-1.39,.6-1.41,1.37v.94c0,10.18,8.28,18.46,18.46,18.46h10.02v-20.77h-27.07Z" fill="#002346"></path>
    </g>
    <g>
      <path d="M267.44,497.75s-2,37.63,5.43,46.43v11s24.76,5.76,38.16,4l46.02,35c.99,.75,.62,2.32-.6,2.56l-118.36,23.06c-5.05,.98-4.36,8.47,.79,8.46,.1,0,.2,0,.3,0h139.16l80.08-72-24.55-77-166.43,18.5Z" fill="#fff"></path>
      <path d="M238.86,628.76c-2.94,0-4.49-2.21-4.69-4.28-.21-2.09,.91-4.6,3.83-5.17l118.36-23.06c.37-.07,.65-.34,.73-.71s-.04-.73-.35-.96l-45.86-34.87c-13.38,1.67-37.89-3.98-38.13-4.03l-.39-.09v-11.22c-7.33-9.09-5.51-45.1-5.43-46.64l.02-.42,167.26-18.59,.12,.39,24.65,77.31-80.46,72.34H238.88s-.01,0-.02,0Zm72.3-70.09l.16,.12,46.02,35c.62,.47,.89,1.23,.71,1.98-.18,.75-.76,1.32-1.52,1.46l-118.36,23.06c-2.32,.45-3.2,2.38-3.03,4.09,.17,1.69,1.39,3.39,3.72,3.38h.29s138.98,0,138.98,0l79.7-71.66-24.33-76.3-165.6,18.41c-.19,4.16-1.47,37.6,5.33,45.66l.12,.14v10.78c3.2,.72,25.34,5.51,37.59,3.9l.2-.03Z" fill="#002346"></path>
    </g>
    <g>
      <path d="M505.87,556.99v71.25h-127.53s-21.51,1.1-10.23-15.14c0,0,43-63.88,127.42-66.29,5.6-.11,10.23,4.34,10.34,9.94,0,.08,0,.16,0,.24Z" fill="#e6e7e8"></path>
      <path d="M377.43,628.76c-2.6,0-9.98-.39-12.36-4.66-1.54-2.76-.65-6.56,2.63-11.28,.1-.15,11.04-16.22,32.16-32.35,19.49-14.89,51.91-32.9,95.66-34.15,5.9-.1,10.74,4.56,10.85,10.43v.25s0,71.75,0,71.75h-128.03c-.07,0-.39,.02-.91,.02Zm118.3-81.45c-.06,0-.13,0-.19,0-43.45,1.24-75.67,19.13-95.04,33.92-21,16.04-31.86,31.99-31.97,32.15-3.05,4.39-3.91,7.83-2.58,10.23,2.54,4.57,12.27,4.13,12.37,4.13h127.06s0-70.98,0-70.98c-.1-5.25-4.41-9.45-9.64-9.45Z" fill="#002346"></path>
    </g>
    <g>
      <rect x="466.91" y="490.98" width="10.91" height="137.27" fill="#e6e7e8"></rect>
      <path d="M478.32,628.75h-11.91v-138.27h11.91v138.27Zm-10.91-1h9.91v-136.27h-9.91v136.27Z" fill="#002346"></path>
    </g>
    <g>
      <rect x="246.92" y="467.84" width="219.13" height="28.19" rx="14.09" ry="14.09" transform="translate(-9.35 7.06) rotate(-1.12)" fill="#e6e7e8"></rect>
      <path d="M261.03,498.4c-7.92,0-14.43-6.36-14.59-14.31-.16-8.05,6.26-14.72,14.31-14.88l190.9-3.73c3.88-.08,7.59,1.37,10.4,4.07,2.81,2.7,4.4,6.34,4.48,10.24,.16,8.05-6.26,14.72-14.31,14.88l-190.9,3.73c-.1,0-.19,0-.29,0Zm-.27-28.69v.5c-7.48,.15-13.46,6.36-13.32,13.86,.15,7.4,6.22,13.33,13.59,13.33,.09,0,.18,0,.27,0l190.9-3.73c7.49-.15,13.47-6.36,13.33-13.86-.07-3.63-1.55-7.02-4.17-9.53s-6.06-3.89-9.69-3.79l-190.9,3.73v-.5Z" fill="#002346"></path>
    </g>
    <g>
      <path d="M365.62,492.82l-98.37,10.78s-5,45.26,14.73,45.26l90.18-27.87-6.54-28.17Z" fill="#e6e7e8"></path>
      <path d="M282.06,549.36h-.08c-3.44,0-6.37-1.33-8.73-3.96-9.79-10.93-6.64-40.6-6.5-41.85l.04-.4,.4-.04,98.81-10.83,6.75,29.05-90.7,28.03Zm-14.35-45.31c-.35,3.62-2.61,30.75,6.29,40.68,2.14,2.39,4.8,3.61,7.91,3.63l89.66-27.71-6.33-27.29-97.53,10.69Z" fill="#002346"></path>
    </g>
    <g>
      <path d="M381.16,553.74l-7-25.6-94.8,28.38c-2.51-.79-4.75-2.26-6.48-4.24,0,0-3.17,35,6.48,34.32-.01,0,60.98-.02,101.8-32.86Z" fill="#e6e7e8"></path>
      <path d="M279.06,587.11c-1.12,0-2.14-.46-3.03-1.36-6.05-6.18-3.75-32.41-3.65-33.52l.11-1.16,.77,.88c1.64,1.87,3.75,3.27,6.11,4.05l95.14-28.48,7.22,26.41-.26,.21c-40.47,32.56-101.5,32.97-102.11,32.97-.1,0-.2,.01-.3,.01Zm-5.77-33.67c-.38,5.14-1.6,26.46,3.46,31.61,.76,.77,1.6,1.11,2.58,1.05,.64,0,61.06-.41,101.27-32.55l-6.78-24.79-94.46,28.28-.15-.05c-2.23-.71-4.26-1.93-5.92-3.56Z" fill="#002346"></path>
    </g>
    <g>
      <path d="M410.54,463.32h108.65c8.79,0,15.91,7.13,15.91,15.91h0c0,8.79-7.13,15.92-15.92,15.92h-108.65v-31.83h0Z" fill="#fff"></path>
      <path d="M519.2,495.65h-109.15v-32.83h109.15c9.05,0,16.42,7.36,16.42,16.42s-7.36,16.42-16.42,16.42Zm-108.15-1h108.15c8.5,0,15.42-6.92,15.42-15.42s-6.92-15.42-15.42-15.42h-108.15v30.83Z" fill="#002346"></path>
    </g>
    <g>
      <path d="M466.52,602.6h42.67c7.08,0,12.83,5.74,12.83,12.83h0c0,7.08-5.74,12.83-12.83,12.83h-34.67s-40.07,0-40.07,0c-7.08,0-12.83-5.74-12.83-12.83h0c0-7.08,5.74-12.83,12.83-12.83h32.07Z" fill="#fff"></path>
      <path d="M509.2,628.76h-74.74c-7.35,0-13.33-5.98-13.33-13.33s5.98-13.33,13.33-13.33h74.74c7.35,0,13.33,5.98,13.33,13.33s-5.98,13.33-13.33,13.33Zm-74.74-25.65c-6.8,0-12.33,5.53-12.33,12.33s5.53,12.33,12.33,12.33h74.74c6.8,0,12.33-5.53,12.33-12.33s-5.53-12.33-12.33-12.33h-74.74Z" fill="#002346"></path>
    </g>
    <g>
      <path d="M372.87,317.99c-.71-.02-1.37-.35-1.8-.9l-17.95-23.1c-.8-1.02-.63-2.5,.4-3.31s2.5-.63,3.31,.4h0l17.95,23.19c.79,1.02,.61,2.49-.41,3.28-.43,.33-.95,.5-1.49,.49v-.05Z" fill="#fff"></path>
      <path d="M372.93,318.54s-.04,0-.07,0h-.5s0-.1,0-.1c-.66-.13-1.26-.5-1.68-1.04l-17.95-23.1c-.47-.6-.68-1.34-.59-2.1,.09-.76,.47-1.43,1.07-1.91,.6-.47,1.35-.68,2.1-.59,.76,.09,1.43,.47,1.9,1.07l17.95,23.19c.46,.6,.67,1.34,.57,2.09-.09,.75-.48,1.42-1.08,1.89-.5,.39-1.11,.6-1.74,.6Zm-17.95-27.86c-.41,0-.81,.14-1.14,.4-.8,.63-.94,1.8-.31,2.6l17.95,23.1c.34,.44,.86,.7,1.41,.71h.43c.27-.05,.52-.17,.74-.34,.39-.3,.64-.74,.7-1.22,.06-.49-.07-.97-.37-1.36l-17.95-23.19c-.3-.39-.74-.63-1.23-.69-.08,0-.15-.01-.22-.01Z" fill="#0d2445"></path>
    </g>
    <g>
      <path d="M368.45,347.32c-1.62,1.17-1.96,3.44-.76,5.04,7.75,10.32,34.4,45.04,48.74,54.48,2.92,1.93,6.82,1.38,9.09-1.28,4.28-5,12.81-16.68,27.5-43.3,0,0-4.89-38.28-2.26-53.43,0,0-4.88-.56-16.3,26.66l-16.14,35.37c-.47,1-1.66,1.43-2.66,.97-.27-.13-.51-.31-.7-.55l-25.33-34.93c-1.16-1.6-3.4-1.96-5-.79l-16.17,11.76Z" fill="#4A92C3"></path>
      <path d="M420.25,408.49c-1.41,0-2.84-.4-4.09-1.23-14.38-9.47-41.04-44.19-48.86-54.6-.66-.88-.93-1.96-.77-3.05,.16-1.09,.74-2.05,1.64-2.7l16.17-11.76c.88-.64,1.96-.9,3.04-.73,1.08,.17,2.02,.75,2.66,1.63l25.33,34.93c.12,.15,.31,.29,.51,.39,.75,.35,1.64,.02,1.99-.72l16.14-35.37c11.23-26.78,16.26-27,16.81-26.95l.53,.06-.09,.52c-2.59,14.9,2.21,52.9,2.26,53.28l.02,.16-.08,.14c-14.36,26.03-22.91,37.96-27.56,43.38-1.46,1.71-3.54,2.6-5.65,2.6Zm-33.52-73.12c-.65,0-1.27,.2-1.8,.59l-16.17,11.76c-.67,.49-1.11,1.21-1.24,2.04-.12,.82,.08,1.63,.58,2.3,7.8,10.38,34.37,44.98,48.62,54.37,2.71,1.79,6.33,1.28,8.44-1.19,4.61-5.38,13.09-17.22,27.36-43.08-.34-2.69-4.6-37.56-2.37-52.6-1.57,.9-6.45,5.23-15.22,26.12l-16.15,35.38c-.59,1.25-2.08,1.79-3.33,1.21-.34-.16-.64-.39-.88-.68l-25.35-34.95c-.48-.67-1.2-1.1-2.01-1.23-.16-.03-.33-.04-.49-.04Z" fill="#002346"></path>
    </g>
    <g>
      <path d="M524.34,305.7h26.51c9.6,0,17.39,7.78,17.39,17.39,0,.54-.02,1.08-.07,1.61l-10.63,113.85c-.88,9.63-8.95,16.99-18.62,17h-25.17s-5.07-116.8,10.59-149.85Z" fill="#fff"></path>
      <path d="M538.92,456.05h-25.65l-.02-.48c-.05-1.17-4.9-117.3,10.64-150.08l.14-.29h26.83c4.78,0,9.27,1.86,12.65,5.24,3.38,3.38,5.24,7.87,5.24,12.65,0,.55-.03,1.11-.08,1.66l-10.63,113.85c-.91,9.94-9.13,17.45-19.12,17.45Zm-24.69-1h24.69c9.47,0,17.26-7.12,18.12-16.55l10.63-113.85c.05-.52,.07-1.05,.07-1.57,0-4.51-1.76-8.75-4.95-11.94-3.19-3.19-7.43-4.94-11.94-4.94h-26.2c-14.76,31.87-10.75,140.67-10.43,148.85Z" fill="#002346"></path>
    </g>
    <g>
      <path d="M518.02,400.15c6.1,35.75,0,51,0,51-12.5,45.63-75.42,37.03-84.71,35.5-.62-.1-1.21,.33-1.3,.96l19.51,45.84-17.35,1.99-26.47,3.03h-.04s-29.72,3.41-29.72,3.41l-22.42,2.57,1.69-81.9c-2.17-20.5,4.36-23,4.36-23,7.65-6.4,66.55-8.37,80.87-8.75,1.95-.05,3.7-1.23,4.5-3.01,16.08-35.56,6.48-63.75,6.48-63.75-5.75-21.55-5.95-43.54-5.91-48.54,0-.68,.05-1.36,.21-2.03,2.64-11.19,17.21-14.09,17.21-14.09l4.55-.89s43.63-3.13,51.04,3.96c7.41,7.09,.69,60.97,.69,60.97-5.1,14.73-3.19,36.73-3.19,36.73Z" fill="#4A92C3"></path>
      <path d="M355.01,545.01l1.7-82.47c-2.08-19.57,3.77-23.03,4.6-23.42,7.9-6.4,64.06-8.37,81.12-8.82,1.74-.04,3.34-1.11,4.06-2.71,15.81-34.96,6.56-63.1,6.46-63.38-5.85-21.91-5.97-44.42-5.94-48.71,0-.82,.07-1.5,.22-2.14,2.68-11.37,17.45-14.43,17.6-14.46l4.55-.89c1.85-.14,44-3.07,51.48,4.09,7.51,7.18,1.12,59.18,.84,61.39l-.02,.1c-4.94,14.27-3.23,35.73-3.17,36.5,6.05,35.47,.22,50.62-.03,51.25-5.3,19.35-20.09,31.4-43.93,35.74-18.38,3.35-36.28,.9-41.32,.07-.17-.03-.33,.01-.47,.12-.11,.08-.18,.18-.22,.3l19.71,46.31-97.23,11.14Zm135.1-246.71c-10.84,0-20.39,.67-20.59,.68l-4.49,.88c-.14,.03-14.29,2.97-16.82,13.71-.13,.56-.2,1.17-.2,1.92-.03,4.27,.09,26.66,5.89,48.41,.09,.25,9.47,28.75-6.51,64.08-.88,1.95-2.82,3.25-4.94,3.3-12.11,.32-72.93,2.25-80.56,8.63l-.14,.08c-.06,.02-6.13,2.76-4.04,22.48l-1.68,81.39,94.77-10.86-19.3-45.35,.02-.14c.06-.44,.29-.82,.65-1.08,.36-.26,.79-.37,1.23-.3,5.01,.83,22.76,3.25,40.98-.06,23.44-4.27,37.96-16.07,43.17-35.08,.08-.21,5.99-15.63-.01-50.78v-.04c-.02-.22-1.86-22.23,3.19-36.89,.24-1.94,6.5-53.75-.55-60.5-3.81-3.65-17.76-4.5-30.06-4.5Z" fill="#002346"></path>
    </g>
    <g>
      <path d="M469.48,298.53l3.33,77.54c.02,.5,.71,.63,.91,.16l32.19-77.7s-12.73-1.44-18.83-1.12c-.03,0-10.76,.23-17.59,1.12Z" fill="#fff"></path>
      <path d="M473.28,377.03c-.06,0-.12,0-.17-.02-.45-.08-.78-.46-.8-.91l-3.35-78,.45-.06c6.9-.9,17.56-1.12,17.65-1.12,6.05-.32,18.37,1.06,18.89,1.12l.66,.08-32.44,78.32c-.15,.37-.51,.6-.89,.6Zm-3.28-78.06l3.31,77.08,31.88-77.1c-2.69-.29-12.89-1.32-18.09-1.05-.12,0-10.28,.22-17.1,1.06Z" fill="#002346"></path>
    </g>
    <g>
      <polygon points="482.86 428.51 491.03 441.35 497.52 437.45 487.52 425.45 482.86 428.51" fill="#fff"></polygon>
      <path d="M490.87,442.03l-8.7-13.67,5.45-3.58,10.66,12.79-7.41,4.45Zm-7.32-13.37l7.64,12.01,5.57-3.35-9.34-11.21-3.88,2.54Z" fill="#002346"></path>
    </g>
    <g>
      <path d="M462.51,429.81l2.13,.33c-2.94,2.06-5.64,4.44-8.06,7.09-1.39,1.51-3.91,2.71-3.58,4.41,.74,3.87,8.37-2.12,8.37-2.12l-2.4,2.45c-2,3.35,2,2.23,2,2.23,3.08,1.76,6.45-.14,8.32-1.57,1.01-.77,2.33-1.01,3.55-.65,11.56,3.12,18.23-.63,18.23-.63l-8.17-12.84c-2.22-.19-4.37-.85-6.31-1.93-2.78-1-5.69-1.54-8.64-1.61-1.82,0-3.64,.31-5.35,.94-3.39,1.19-9.63,3.92-8.59,7.51-.04,0,1.41,3.05,8.5-3.61Z" fill="#f2b3c1"></path>
      <path d="M463.64,445.41c-.9,0-1.83-.19-2.74-.67-.61,.14-2.1,.39-2.74-.43-.5-.65-.18-1.55,.12-2.13-1.6,.88-3.39,1.58-4.57,1.14-.45-.17-1.02-.58-1.21-1.57-.29-1.48,1.02-2.54,2.29-3.58,.5-.41,1.02-.83,1.42-1.26,2.16-2.37,4.56-4.53,7.15-6.44l-.69-.11c-4.9,4.55-7.32,4.67-8.49,3.96-.18-.11-.56-.41-.65-.74h0c-1.14-3.94,5.09-6.78,8.91-8.12,1.77-.65,3.66-.94,5.52-.97,3.02,.07,5.98,.62,8.81,1.64,1.97,1.09,4.02,1.72,6.18,1.9l.25,.02,8.59,13.5-.46,.26c-.28,.16-6.98,3.82-18.61,.68-1.07-.32-2.23-.1-3.12,.57-1.33,1.02-3.56,2.38-5.95,2.38Zm-2.61-1.75l.18,.1c2.87,1.64,6.1-.26,7.77-1.53,1.14-.86,2.63-1.14,4-.73,9.48,2.56,15.66,.39,17.36-.36l-7.73-12.16c-2.21-.22-4.32-.88-6.26-1.97-2.66-.95-5.51-1.48-8.41-1.55h-.04c-1.75,0-3.48,.31-5.13,.91-2.8,.98-9.19,3.61-8.29,6.87,.05,.07,.23,.28,.65,.34,.83,.14,2.86-.23,7.03-4.15l.18-.17,3.6,.56-1.02,.71c-2.9,2.04-5.59,4.4-7.98,7.02-.45,.49-.99,.93-1.52,1.36-1.09,.89-2.11,1.72-1.94,2.62,.11,.58,.38,.75,.58,.82,1.41,.53,5.04-1.71,6.99-3.24l.67,.74-2.36,2.41c-.48,.81-.52,1.27-.41,1.41,.2,.27,1.15,.23,1.87,.03l.2-.06Z" fill="#002346"></path>
    </g>
    <path d="M460.52,440.95c-.13,0-.25-.05-.35-.14-.2-.19-.2-.51,0-.71l7.93-8.12c.19-.2,.51-.2,.71,0,.2,.19,.2,.51,0,.71l-7.93,8.12c-.1,.1-.23,.15-.36,.15Z" fill="#002346"></path>
    <path d="M460.93,444.7c-.14,0-.29-.06-.38-.18-.18-.21-.15-.53,.06-.7,.32-.27,7.98-6.62,12.4-5.94,.27,.04,.46,.3,.42,.57-.04,.27-.29,.46-.57,.42-3.98-.61-11.53,5.66-11.6,5.72-.09,.08-.21,.12-.32,.12Z" fill="#002346"></path>
    <g>
      <path d="M418.93,633.84c-8.06,13.5-26.77,15-26.77,15l8.53-12.64c1.53-2.24,1.98-5.04,1.24-7.65-4.23-14.87-15.21-54.7-23.99-86.67l29.72-3.4h.04s.53,4.46,.53,4.46l10.7,90.9Z" fill="#f2b3c1"></path>
      <path d="M391.17,649.42l9.11-13.5c1.45-2.12,1.88-4.76,1.17-7.23-4.9-17.23-18.41-66.36-23.99-86.67l-.15-.56,30.3-3.47,.55-.13,.04,.56,.53,4.47,10.72,91.07-.09,.15c-8.1,13.57-26.97,15.23-27.16,15.24l-1.04,.08Zm-12.59-107.11c5.67,20.65,18.98,69.03,23.83,86.1,.78,2.76,.31,5.7-1.31,8.07l-7.92,11.73c4.03-.56,18.45-3.33,25.23-14.49l-11.15-94.7-28.69,3.28Z" fill="#002346"></path>
    </g>
    <g>
      <path d="M460.93,603.29s-2.94,13.4-24.84,21.24l7.34-14.15c1.14-2.18,1.08-4.8-.16-6.93l-35.04-60.51-.07-.12-.5-4.34h.04s26.47-3.04,26.47-3.04l26.76,67.85Z" fill="#f2b3c1"></path>
      <path d="M435.06,625.43l7.93-15.28c1.07-2.04,1.01-4.45-.15-6.45l-35.16-60.72-.56-4.88,.53-.13,26.85-3.07,.14,.36,26.82,67.99-.03,.15c-.12,.56-3.25,13.76-25.16,21.6l-1.2,.43Zm-26.42-82.77l.02,.03,35.04,60.51c1.33,2.29,1.4,5.06,.17,7.41l-6.74,13c19.1-7.26,22.88-18.88,23.28-20.29l-26.56-67.34-25.63,2.93,.43,3.74Z" fill="#002346"></path>
    </g>
    <g>
      <path d="M436.09,624.51s-16.67,7.85-7.84,10.79c0,0,14.44,1.88,38.39-20.8,.85-.81,.96-2.12,.28-3.07l-6-8.16s-1.95,12.42-24.83,21.24Z" fill="#4A92C3"></path>
      <path d="M429.22,635.85c-.6,0-.95-.04-1.03-.05-1.96-.64-2.94-1.56-3.01-2.74-.22-3.74,9.58-8.47,10.7-9h.03c22.29-8.61,24.5-20.74,24.52-20.87l.19-1.18,6.71,9.12c.83,1.15,.68,2.75-.34,3.73-20.54,19.46-34.04,20.98-37.77,20.98Zm-.81-1.02c.08,0,14.47,1.49,37.89-20.69,.66-.63,.75-1.67,.22-2.41l-5.37-7.3c-1.02,3.25-5.61,13.13-24.86,20.55-3.99,1.88-10.25,5.72-10.11,8.03,.04,.73,.8,1.35,2.24,1.83h0Z" fill="#002346"></path>
    </g>
    <g>
      <path d="M390.27,649.18s-17.91,4.33-9.85,9c0,0,13.76,4.75,41.79-12.65,.99-.63,1.36-1.88,.89-2.95l-4.22-9.2s-4.42,11.76-28.61,15.8Z" fill="#4A92C3"></path>
      <path d="M385.67,659.31c-3.42,0-5.21-.58-5.41-.65-1.79-1.03-2.57-2.12-2.4-3.3,.54-3.72,11.09-6.37,12.29-6.66h.04c23.57-3.94,28.18-15.38,28.22-15.49l.42-1.11,4.72,10.28c.57,1.29,.11,2.83-1.08,3.58-18.21,11.31-30.39,13.35-36.81,13.35Zm4.7-9.63c-4.29,1.04-11.19,3.54-11.52,5.83-.11,.73,.51,1.49,1.82,2.25,.05,0,13.84,4.39,41.28-12.64,.77-.49,1.07-1.49,.7-2.32l-3.78-8.23c-1.66,2.98-8.15,11.72-28.5,15.12Z" fill="#002346"></path>
    </g>
    <g>
      <rect x="207.9" y="308.52" width="25.47" height="192.06" rx="12.73" ry="12.73" transform="translate(-157.05 140.56) rotate(-26.44)" fill="#fff"></rect>
      <path d="M257.74,492.38c-1.42,0-2.84-.23-4.23-.7-3.35-1.12-6.06-3.49-7.64-6.65l-74.18-149.17c-3.25-6.53-.58-14.49,5.96-17.74,6.53-3.25,14.49-.58,17.74,5.96l74.18,149.17c1.57,3.17,1.82,6.75,.7,10.11-1.13,3.35-3.49,6.06-6.65,7.64-1.86,.92-3.86,1.39-5.88,1.39Zm-74.21-174.64c-1.83,0-3.68,.41-5.43,1.28-6.04,3-8.51,10.36-5.51,16.4l74.18,149.17c1.46,2.93,3.96,5.11,7.06,6.15,3.1,1.04,6.42,.81,9.34-.64,2.93-1.46,5.11-3.96,6.15-7.06,1.04-3.1,.81-6.42-.64-9.34l-74.18-149.17c-2.14-4.29-6.48-6.79-10.98-6.79Z" fill="#002346"></path>
    </g>
    <g>
      <path d="M244.16,480.44l-74.1-149.71c-1.69-3.43-5.85-4.84-9.28-3.15-.27,.13-.53,.28-.78,.45h0c-2.93,1.97-3.93,5.81-2.34,8.96l76.28,148.6c1.43,2.81,4.86,3.92,7.67,2.49,.11-.06,.23-.12,.33-.18h0c2.58-1.52,3.55-4.78,2.22-7.46Z" fill="#e6e7e8"></path>
      <path d="M239.03,489.21c-.65,0-1.29-.1-1.93-.31-1.57-.51-2.86-1.61-3.61-3.08l-76.28-148.6c-1.7-3.37-.62-7.5,2.51-9.6,.27-.18,.55-.34,.84-.48,3.67-1.81,8.14-.3,9.95,3.38l74.1,149.71c1.44,2.91,.38,6.47-2.41,8.11-.12,.07-.24,.14-.36,.2-.88,.45-1.84,.68-2.8,.68Zm-75.19-161.84c-.95,0-1.92,.21-2.83,.66-.25,.12-.49,.26-.72,.42-2.71,1.82-3.64,5.4-2.17,8.32l76.28,148.6c.63,1.24,1.71,2.16,3.03,2.59,1.32,.43,2.73,.32,3.97-.31,.1-.05,.21-.11,.3-.17,2.35-1.38,3.24-4.37,2.03-6.81h0s-74.1-149.71-74.1-149.71c-1.12-2.27-3.4-3.59-5.78-3.59Z" fill="#002346"></path>
    </g>
    <g>
      <path d="M583.68,389.99s16.49-3.74,14.86-26h10.78s1,3.27,5.23,3.27c0,0-1.37,33.67-30.87,37.92v-15.19Z" fill="#fff"></path>
      <path d="M583.18,405.76v-16.17l.39-.09c.66-.15,16.05-3.93,14.47-25.48l-.04-.54h11.69l.11,.35c.04,.12,.96,2.92,4.75,2.92h.52l-.02,.52c-.01,.34-1.73,34.14-31.3,38.4l-.57,.08Zm1-15.39v14.23c26.26-4.18,29.5-32.7,29.84-36.86-3.29-.21-4.63-2.39-5.03-3.25h-9.91c1.22,20.05-12.4,25.12-14.9,25.88Z" fill="#002346"></path>
    </g>
    <g>
      <path d="M610.63,341.79c-.33-8.5,5.88-7.19,5.88-7.19l30.4-4.58,68,14.71-26.8,3.92c-8.5,.33-7.84,6.54-7.84,6.54l-2,25.42-63.74-13.33c-3.92,.66-5.23-3.27-5.23-3.27l1.33-22.22Z" fill="#fff"></path>
      <path d="M678.72,381.22l-64.21-13.43c-4.22,.63-5.68-3.58-5.69-3.62l-.03-.09,1.33-22.29c-.12-3.09,.6-5.31,2.12-6.59,1.69-1.43,3.8-1.18,4.27-1.1l30.41-4.58,.09,.02,70.7,15.29-29.53,4.32c-2.87,.11-4.92,.89-6.16,2.31-1.44,1.66-1.26,3.66-1.26,3.68l-2.04,26.08Zm-64.18-14.44l.09,.02,63.18,13.21,1.96-24.85s-.24-2.34,1.49-4.34c1.42-1.65,3.72-2.54,6.83-2.67l24.02-3.51-65.21-14.11-30.4,4.58-.09-.02s-2.02-.4-3.53,.88c-1.27,1.08-1.86,3.03-1.75,5.8v.02s-1.32,22.14-1.32,22.14c.21,.55,1.47,3.38,4.64,2.85l.09-.02Z" fill="#002346"></path>
    </g>
    <g>
      <path d="M714.89,344.73s2.62-1,4.58,4.58l6.24,14.92c.94,2.28-.14,4.9-2.43,5.84-.15,.06-.31,.12-.46,.16l-39.66,11.45s-5.1,1.4-4.9-1.07l2-25.42s-.66-7.52,7.84-6.54l26.79-3.92Z" fill="#e6e7e8"></path>
      <path d="M680.43,382.58c-.81,0-1.6-.13-2.1-.55-.29-.24-.63-.69-.57-1.45l2-25.42c-.01-.05-.26-3.24,1.9-5.34,1.45-1.41,3.62-1.98,6.43-1.66l26.68-3.9c.22-.07,.91-.22,1.81,.2,1.35,.63,2.48,2.21,3.36,4.7l6.23,14.89c.51,1.23,.51,2.58,0,3.81-.51,1.23-1.47,2.18-2.69,2.69-.17,.07-.34,.13-.52,.18l-39.66,11.45c-.23,.06-1.57,.41-2.86,.41Zm6.21-33.51c-1.85,0-3.28,.49-4.28,1.46-1.82,1.78-1.6,4.59-1.6,4.62l-2,25.5c-.03,.36,.1,.51,.21,.6,.7,.58,2.86,.28,4.06-.05l39.65-11.45c.14-.04,.28-.09,.41-.14,.98-.41,1.75-1.17,2.15-2.15,.41-.98,.41-2.06,0-3.04l-6.24-14.92c-1.75-4.98-3.93-4.31-3.95-4.3l-.1,.02-26.85,3.93h-.06c-.49-.06-.96-.09-1.4-.09Z" fill="#002346"></path>
    </g>
    <g>
      <rect x="338.33" y="24.11" width="16.01" height="50.72" rx="1.46" ry="1.46" fill="#fff"></rect>
      <path d="M352.88,75.33h-13.09c-1.08,0-1.96-.88-1.96-1.96V25.57c0-1.08,.88-1.96,1.96-1.96h13.09c1.08,0,1.96,.88,1.96,1.96v47.8c0,1.08-.88,1.96-1.96,1.96Zm-13.09-50.72c-.53,0-.96,.43-.96,.96v47.8c0,.53,.43,.96,.96,.96h13.09c.53,0,.96-.43,.96-.96V25.57c0-.53-.43-.96-.96-.96h-13.09Z" fill="#002346"></path>
    </g>
    <g>
      <circle cx="345.34" cy="105.38" r="39.06" fill="#e6e7e8"></circle>
      <path d="M345.34,144.94c-21.81,0-39.56-17.75-39.56-39.56s17.75-39.56,39.56-39.56,39.56,17.75,39.56,39.56-17.75,39.56-39.56,39.56Zm0-78.12c-21.26,0-38.56,17.3-38.56,38.56s17.3,38.56,38.56,38.56,38.56-17.3,38.56-38.56-17.3-38.56-38.56-38.56Z" fill="#002346"></path>
    </g>
    <g>
      <circle cx="345.34" cy="105.38" r="32.11" fill="#fff"></circle>
      <path d="M345.34,137.99c-17.98,0-32.61-14.63-32.61-32.61s14.63-32.61,32.61-32.61,32.61,14.63,32.61,32.61-14.63,32.61-32.61,32.61Zm0-64.22c-17.43,0-31.61,14.18-31.61,31.61s14.18,31.61,31.61,31.61,31.61-14.18,31.61-31.61-14.18-31.61-31.61-31.61Z" fill="#002346"></path>
    </g>
    <g>
      <circle cx="345.34" cy="105.38" r="15.45" fill="#4A92C3"></circle>
      <path d="M345.34,121.33c-8.79,0-15.95-7.16-15.95-15.95s7.16-15.95,15.95-15.95,15.95,7.16,15.95,15.95-7.16,15.95-15.95,15.95Zm0-30.9c-8.24,0-14.95,6.71-14.95,14.95s6.71,14.95,14.95,14.95,14.95-6.71,14.95-14.95-6.71-14.95-14.95-14.95Z" fill="#002346"></path>
    </g>
    <g>
      <circle cx="476.76" cy="119.81" r="14.66" fill="#C2E3F3"></circle>
      <path d="M476.76,134.97c-8.36,0-15.16-6.8-15.16-15.16s6.8-15.16,15.16-15.16,15.16,6.8,15.16,15.16-6.8,15.16-15.16,15.16Zm0-29.32c-7.81,0-14.16,6.35-14.16,14.16s6.35,14.16,14.16,14.16,14.16-6.35,14.16-14.16-6.35-14.16-14.16-14.16Z" fill="#002346"></path>
    </g>
    <g>
      <circle cx="476.76" cy="119.81" r="7.95" fill="#fff"></circle>
      <path d="M476.76,128.26c-4.66,0-8.45-3.79-8.45-8.45s3.79-8.45,8.45-8.45,8.45,3.79,8.45,8.45-3.79,8.45-8.45,8.45Zm0-15.9c-4.11,0-7.45,3.34-7.45,7.45s3.34,7.45,7.45,7.45,7.45-3.34,7.45-7.45-3.34-7.45-7.45-7.45Z" fill="#002346"></path>
    </g>
    <g>
      <path d="M632.89,335.25h1.27c.61,0,1.1,.49,1.1,1.1v8.31h-3.43v-8.31c0-.59,.47-1.08,1.06-1.1Z" fill="#fff"></path>
      <path d="M635.76,345.16h-4.43v-8.81c0-.87,.68-1.57,1.54-1.6h1.29c.88,0,1.6,.72,1.6,1.6v8.81Zm-3.43-1h2.43v-7.81c0-.33-.27-.6-.6-.6h-1.26c-.32,.02-.57,.28-.57,.6v7.81Z" fill="#002346"></path>
    </g>
    <g>
      <path d="M648.8,337.04h1.23c.61,0,1.1,.49,1.1,1.1v8.31h-3.43v-8.31c0-.61,.49-1.1,1.1-1.1h0Z" fill="#fff"></path>
      <path d="M651.63,346.95h-4.43v-8.81c0-.88,.72-1.6,1.6-1.6h1.23c.88,0,1.6,.72,1.6,1.6v8.81Zm-3.43-1h2.43v-7.81c0-.33-.27-.6-.6-.6h-1.23c-.33,0-.6,.27-.6,.6v7.81Z" fill="#002346"></path>
    </g>
    <g>
      <path d="M663.53,341.75h1.23c.61,0,1.1,.49,1.1,1.1v8.31h-3.43v-8.31c0-.61,.49-1.1,1.1-1.1h0Z" fill="#fff"></path>
      <path d="M666.36,351.66h-4.43v-8.81c0-.88,.72-1.6,1.6-1.6h1.23c.88,0,1.6,.72,1.6,1.6v8.81Zm-3.43-1h2.43v-7.81c0-.33-.27-.6-.6-.6h-1.23c-.33,0-.6,.27-.6,.6v7.81Z" fill="#002346"></path>
    </g>
    <g>
      <path d="M172.4,263.83h0s-2.5,27.53-2.5,27.53h0c-3.04-.28-5.28-2.97-5.01-6.01l1.5-16.51c.28-3.04,2.97-5.28,6.01-5.01Z" fill="#fff"></path>
      <path d="M170.35,291.9l-.5-.04c-3.31-.3-5.76-3.24-5.46-6.55l1.5-16.51c.15-1.6,.91-3.06,2.14-4.09s2.8-1.52,4.41-1.37l.5,.04-2.59,28.52Zm1.5-27.59c-1.16,0-2.27,.41-3.18,1.17-1.03,.86-1.67,2.07-1.79,3.41l-1.5,16.51c-.24,2.59,1.55,4.91,4.06,5.4l2.41-26.48Z" fill="#002346"></path>
    </g>
    <g>
      <path d="M168.87,299.54l3.58-45c.28-3.53,3.37-6.16,6.9-5.88,.03,0,.07,0,.1,0h0c3.5,.33,6.08,3.41,5.78,6.91l-3.75,45c-.29,3.48-3.35,6.07-6.83,5.79-.06,0-.11-.01-.17-.02h0c-3.4-.38-5.89-3.4-5.61-6.81Z" fill="#e6e7e8"></path>
      <path d="M175.18,306.89c-.19,0-.38,0-.58-.02l-.18-.02c-3.7-.41-6.36-3.64-6.06-7.35l3.58-45c.3-3.8,3.63-6.67,7.44-6.34h.1c3.75,.36,6.55,3.7,6.23,7.46l-3.75,45c-.15,1.82-1,3.47-2.39,4.65-1.24,1.05-2.79,1.62-4.4,1.62Zm3.72-57.74c-3.12,0-5.71,2.35-5.95,5.43l-3.58,45c-.26,3.17,2.01,5.92,5.17,6.27h.16c1.55,.14,3.06-.34,4.25-1.35,1.19-1.01,1.91-2.42,2.04-3.97l3.75-45c.27-3.21-2.12-6.07-5.33-6.37-.17-.01-.34-.02-.5-.02Z" fill="#002346"></path>
    </g>
    <g>
      <path d="M528.76,303.44c2.99,2.71,5.57,6.76,7.01,12.8,0,0,20.83,52.14,24.75,82.21,0,0,2.26,14.92-27.91,24.72l-33.26,16.38c-1.05,.52-2.33,.19-3-.76l-9.27-13.14c-.82-1.17-.44-2.79,.81-3.48l45.27-24.49-13.44-38.44c-.61-1.75-1.27-3.48-1.98-5.2-2.48-6.01-5.76-11.64-9.4-17.02-3.04-4.5-8.01-14.15-4.79-25.85,3.03-11.03,16.72-15.4,25.2-7.73Z" fill="#4A92C3"></path>
      <path d="M498.29,440.3c-.91,0-1.79-.43-2.35-1.22l-9.27-13.14c-.48-.67-.64-1.52-.45-2.32,.19-.8,.71-1.49,1.44-1.88l44.9-24.29-13.3-38.04c-.61-1.74-1.27-3.47-1.97-5.17-2.22-5.38-5.28-10.92-9.35-16.93-3.21-4.74-8.1-14.46-4.86-26.27,1.51-5.48,5.69-9.71,11.18-11.31,5.28-1.54,10.83-.29,14.84,3.34h0c3.43,3.11,5.84,7.5,7.16,13.05,.19,.45,20.88,52.47,24.76,82.26,.09,.62,1.97,15.44-28.25,25.26l-33.19,16.35c-.41,.2-.85,.3-1.28,.3Zm20.44-140.22c-1.4,0-2.81,.2-4.2,.6-5.16,1.5-9.08,5.47-10.5,10.61-3.14,11.42,1.61,20.84,4.72,25.44,4.11,6.08,7.2,11.67,9.45,17.11,.71,1.71,1.38,3.47,1.99,5.22l13.58,38.84-.38,.2-45.27,24.49c-.47,.26-.82,.71-.94,1.23-.12,.52-.01,1.08,.3,1.52l9.27,13.14c.54,.76,1.54,1.02,2.37,.6l33.26-16.38c29.49-9.59,27.66-24.05,27.64-24.2-3.87-29.68-24.51-81.58-24.72-82.1-1.3-5.43-3.61-9.65-6.88-12.61-2.69-2.44-6.13-3.73-9.69-3.73Z" fill="#002346"></path>
    </g>
    <g>
      <path d="M474.36,284.18v22.64s0,15.36,15.34,6.86c6.14-3.73,9.76-10.51,9.46-17.69l-.61-22.32-24.19,10.51Z" fill="#f2b3c1"></path>
      <path d="M481.72,316.75c-1.38,0-2.6-.31-3.66-.94-4.16-2.45-4.2-8.72-4.2-8.99v-22.97l25.17-10.94,.63,23.06c.31,7.35-3.41,14.3-9.7,18.13-3.17,1.76-5.92,2.64-8.24,2.64Zm-6.86-32.24v22.31c0,.06,.05,5.97,3.71,8.13,2.51,1.48,6.17,.91,10.88-1.7,5.97-3.63,9.5-10.24,9.2-17.23l-.59-21.59-23.21,10.08Z" fill="#002346"></path>
    </g>
    <g>
      <path d="M469.81,281.9s-9,1-14.52-6.77c-2.45-3.61-3.04-8.17-1.6-12.29l.05-.15c.91-1.82,1.33-3.83,1.24-5.86-.12-3.73-1.47-7.31-3.82-10.21-2.89-3.75-7.07-11.75-1.34-22.28,0,0,5.23-7.41,13.95-5.23,0,0,4.35-14.38,29.19-12.85,0,0,12.75-.44,26.48,19.83,0,0,6.54,12.09,13.4,14.7,0,0,8.82,5.56,5.88,14.06-.83,4.68-4.25,8.49-8.82,9.8,0,0-3.6,22.82-24,17.29,0,0-4.33-1.13-7.31-8.23l-28.78,8.19Z" fill="#002346"></path>
      <path d="M511.94,283.31c-1.95,0-4.01-.29-6.17-.88-.18-.05-4.43-1.23-7.46-8.11l-28.44,8.09c-.09,.01-9.36,.94-14.98-6.98-2.53-3.74-3.15-8.5-1.66-12.75l.05-.14c.89-1.8,1.3-3.74,1.21-5.68-.12-3.6-1.44-7.12-3.71-9.92-3.03-3.93-7.23-12.11-1.39-22.83,.08-.12,5.38-7.47,14.08-5.58,1.01-2.45,7.06-14.17,29.53-12.76,.48-.03,13.13-.22,26.86,20.05,.09,.16,6.56,12,13.16,14.51,.18,.1,9.21,5.92,6.17,14.69-.82,4.66-4.28,8.59-8.85,10.03-.35,1.85-2.41,11.13-9.52,15.73-2.61,1.69-5.58,2.53-8.88,2.53Zm-13.06-10.2l.17,.41c2.83,6.75,6.94,7.93,6.98,7.94,5.56,1.51,10.36,1,14.25-1.52,7.38-4.77,9.11-15.26,9.13-15.36l.05-.31,.31-.09c4.35-1.25,7.68-4.94,8.47-9.41,2.8-8.11-5.57-13.5-5.65-13.55-6.86-2.6-13.3-14.38-13.57-14.88-13.4-19.78-25.9-19.57-26.02-19.57-24.15-1.5-28.69,12.36-28.73,12.5l-.14,.45-.46-.11c-8.29-2.08-13.37,4.96-13.42,5.03-5.53,10.18-1.55,17.96,1.33,21.69,2.4,2.95,3.8,6.68,3.92,10.5,.1,2.1-.35,4.21-1.29,6.1l-.02,.08c-1.39,3.96-.81,8.39,1.54,11.85,5.09,7.17,13.38,6.62,14.01,6.56l29.16-8.3Z" fill="#0d2445"></path>
    </g>
    <g>
      <rect x="456.02" y="220.95" width="48" height="65" rx="24" ry="24" fill="#f2b3c1"></rect>
      <path d="M480.02,286.45c-13.51,0-24.5-10.99-24.5-24.5v-17c0-13.51,10.99-24.5,24.5-24.5s24.5,10.99,24.5,24.5v17c0,13.51-10.99,24.5-24.5,24.5Zm0-65c-12.96,0-23.5,10.54-23.5,23.5v17c0,12.96,10.54,23.5,23.5,23.5s23.5-10.54,23.5-23.5v-17c0-12.96-10.54-23.5-23.5-23.5Z" fill="#002346"></path>
    </g>
    <g>
      <path d="M296.3,539.26l1.23,10.1,3.64,4.36s-1.22-5.28,1.39-6.58c0,0,4.36-2.36,8.27-1.27l-1.67-8.35-12.86,1.74Z" fill="#f2b3c1"></path>
      <path d="M302.13,555.65l-5.07-6.08-1.31-10.74,13.81-1.87,1.92,9.61-.78-.22c-3.66-1.02-7.86,1.21-7.9,1.23-1.86,.93-1.45,4.67-1.14,6.03l.47,2.04Zm-4.12-6.49l2.42,2.89c-.14-1.79,.02-4.41,1.91-5.35,.16-.09,4.03-2.14,7.85-1.48l-1.43-7.13-11.91,1.61,1.15,9.46Z" fill="#002346"></path>
    </g>
    <g>
      <path d="M328.36,538.63l-.33,7s7.19,5.32,9.81,.91c0,0-.16-4,3.59-3v-6.64l-13.07,1.73Z" fill="#f2b3c1"></path>
      <path d="M334.66,548.79c-3.16,0-6.76-2.63-6.93-2.76l-.21-.16,.36-7.68,14.05-1.86v7.86l-.63-.17c-.92-.25-1.64-.18-2.12,.21-.89,.71-.84,2.27-.84,2.29v.15s-.07,.13-.07,.13c-.61,1.03-1.5,1.67-2.63,1.9-.32,.06-.65,.09-.98,.09Zm-6.12-3.41c.89,.61,4.36,2.84,6.9,2.34,.81-.16,1.44-.6,1.9-1.32,0-.51,.13-2.07,1.21-2.94,.62-.5,1.41-.67,2.38-.53v-5.46l-12.09,1.6-.3,6.31Z" fill="#002346"></path>
    </g>
    <g>
      <path d="M267.24,356.75s11.52-8,20-8.95c0,0,30.68-3.67,39.51,8.95l6.53,87.8s-42.81,2-64.06,1.63l1.31-53.27-3.29-36.16Z" fill="#C2E3F3"></path>
      <path d="M274.97,446.73c-2.05,0-3.98-.01-5.76-.04h-.5s1.32-53.78,1.32-53.78l-3.31-36.39,.24-.17c.47-.33,11.72-8.08,20.23-9.04,1.26-.15,31.08-3.56,39.98,9.16l.08,.11v.14s6.58,88.31,6.58,88.31l-.51,.02c-.39,.02-36.16,1.68-58.34,1.68Zm-5.24-1.04c19.89,.29,58.13-1.39,63.01-1.62l-6.48-87.15c-8.66-12.1-38.66-8.67-38.96-8.63-7.59,.85-17.84,7.57-19.54,8.7l3.26,35.87-1.3,52.82Z" fill="#002346"></path>
    </g>
    <g>
      <path d="M326.73,356.75s9.58,2.6,17.21,30.49l-14.35,8-2.86-38.49Z" fill="#4A92C3"></path>
      <path d="M329.15,396.06l-2.97-39.98,.68,.19c.4,.11,9.94,3,17.56,30.84l.1,.38-15.38,8.57Zm-1.86-38.51l2.74,36.87,13.32-7.43c-6.23-22.54-13.77-28.2-16.06-29.45Z" fill="#002346"></path>
    </g>
    <g>
      <path d="M340.96,388.91l4.56,40.28s3.13,11.44-4.56,14.05l-8.06-3.6-3.31-44.37,11.37-6.36Z" fill="#f2b3c1"></path>
      <path d="M340.94,443.78l-8.51-3.8-3.36-44.99,12.3-6.88,4.65,41.03s3.15,11.85-4.9,14.58l-.19,.06Zm-7.56-4.47l7.6,3.4c6.92-2.55,4.09-13.27,4.06-13.38l-4.49-39.61-10.44,5.84,3.26,43.75Z" fill="#002346"></path>
    </g>
    <g>
      <path d="M269.16,446.18s-2,21,9.95,23h50.44l3.67-24.65-64.06,1.65Z" fill="#4A92C3"></path>
      <path d="M329.98,469.68h-50.87c-12.35-2.06-10.53-22.67-10.45-23.55l.04-.44,65.1-1.68-3.82,25.67Zm-60.36-23.01c-.19,3-.85,20.28,9.57,22.02h49.93s3.52-23.64,3.52-23.64l-63.01,1.62Z" fill="#002346"></path>
    </g>
    <g>
      <path d="M312.48,534.93c-.65-19.62-7.98-69.9-7.98-69.9-1.53-20.48-14.82-17.65-14.82-17.65-9.15-1.09-11.78,6.36-11.78,6.36-5.3,10.15,9.37,71.48,12.88,85.75,.41,1.64,2.06,2.65,3.71,2.26l15.62-3.72c1.43-.34,2.42-1.63,2.37-3.1Z" fill="#4A92C3"></path>
      <path d="M293.78,542.33c-1.61,0-3.08-1.1-3.48-2.72-4.35-17.64-18.12-75.97-12.84-86.1,0-.01,2.83-7.71,12.2-6.63,.66-.12,4.76-.72,8.62,2.18,3.88,2.91,6.14,8.27,6.71,15.94,.07,.47,7.34,50.49,7.98,69.92h0c.06,1.69-1.1,3.21-2.75,3.6l-15.62,3.72c-.28,.07-.55,.1-.83,.1Zm-5.89-94.56c-7.24,0-9.42,5.87-9.52,6.14-5.28,10.13,9.82,72.97,12.9,85.46,.34,1.37,1.73,2.21,3.11,1.89l15.62-3.72c1.19-.28,2.03-1.37,1.99-2.59h0c-.64-19.37-7.9-69.34-7.97-69.84-.55-7.39-2.67-12.5-6.3-15.24-3.76-2.83-7.88-2.01-7.92-2l-.08,.02h-.08c-.61-.08-1.19-.12-1.73-.12Z" fill="#002346"></path>
    </g>
    <g>
      <path d="M327.14,539.07l15.22-2.23c1.08-.16,1.91-1.05,1.98-2.14l5.26-75.54s.47-13.29-8.81-14.6c0,0-17.33-3.05-17.55,22.22l1.24,70.03c.02,1.4,1.28,2.46,2.66,2.26Z" fill="#4A92C3"></path>
      <path d="M326.8,539.59c-.67,0-1.31-.23-1.83-.67-.62-.53-.98-1.29-1-2.11l-1.24-70.03c.08-9.21,2.4-15.78,6.91-19.53,5.07-4.22,10.98-3.24,11.23-3.19,9.6,1.35,9.23,14.97,9.22,15.11l-5.26,75.56c-.09,1.31-1.1,2.41-2.41,2.6l-15.22,2.23c-.14,.02-.27,.03-.41,.03Zm12.31-94.65c-2.03,0-5.65,.44-8.84,3.09-4.26,3.55-6.46,9.86-6.54,18.74l1.24,70.02c0,.53,.24,1.02,.65,1.36,.4,.34,.93,.5,1.45,.41l15.22-2.23c.84-.12,1.5-.83,1.56-1.68l5.26-75.54c0-.11,.34-12.84-8.38-14.07-.02,0-.63-.1-1.61-.1Z" fill="#002346"></path>
    </g>
    <g>
      <path d="M297.53,549.36s-2.51,4.19,10.24,16.29c0,0,3.43,2.77,6.86,1.63,0,0,8.9-1.18-4-22.26,0,0-12.2-1.82-9.49,8.7l-3.61-4.36Z" fill="#C2E3F3"></path>
      <path d="M312.86,568.07c-2.85,0-5.28-1.93-5.4-2.03-12.71-12.05-10.63-16.47-10.35-16.94l.36-.61,2.84,3.43c-.22-2.14,.24-3.86,1.39-5.13,2.84-3.15,8.76-2.3,9.02-2.27l.23,.03,.12,.2c7.59,12.41,7.71,18.11,6.47,20.71-.97,2.03-2.75,2.29-2.83,2.3-.62,.21-1.24,.29-1.84,.29Zm-4.74-2.78s3.24,2.55,6.36,1.52c.14-.03,1.43-.24,2.16-1.79,1.11-2.37,.91-7.69-6.3-19.53-1.08-.12-5.71-.46-7.9,1.98-1.23,1.37-1.5,3.43-.81,6.13l.56,2.17-4.34-5.25c.04,1.76,1.29,6.24,10.28,14.77h0Z" fill="#002346"></path>
    </g>
    <g>
      <path d="M325.08,550.12l2.95-4.5s5.3,3.7,8.65,1.87c.67-.4,1.14-1.08,1.27-1.85,.25-1.25,1-3.26,3.48-2.08,0,0,4.39-1,2,4.55-.26,.62-.08,1.35,.46,1.76,2.55,2.07,9.29,8.06,7.26,12.37-.61,1.13-2.02,1.54-3.15,.93,0,0,0,0-.01,0l-22.47-11.52c-.53-.25-.75-.89-.5-1.41,.02-.04,.04-.07,.06-.11Z" fill="#C2E3F3"></path>
      <path d="M349.1,563.95c-.45,0-.91-.11-1.34-.34l-22.47-11.52c-.36-.17-.65-.49-.79-.88s-.12-.82,.06-1.19c.03-.05,.05-.11,.09-.16h0s3.23-4.94,3.23-4.94l.42,.29c.05,.04,5.09,3.5,8.12,1.84,.53-.32,.91-.87,1.02-1.5,.27-1.35,.81-2.22,1.6-2.62,.68-.34,1.5-.31,2.43,.11,.49-.08,1.87-.19,2.64,.74,.74,.89,.66,2.42-.25,4.52-.17,.41-.05,.89,.31,1.17,2.95,2.39,9.55,8.43,7.41,12.98-.52,.96-1.5,1.5-2.5,1.5Zm-23.6-13.56l-.03,.05c-.07,.14-.07,.29-.02,.43,.05,.14,.15,.25,.29,.32l22.48,11.53c.45,.25,.94,.3,1.41,.16,.47-.14,.85-.45,1.08-.88,1.88-3.99-4.99-10-7.14-11.74-.71-.54-.96-1.51-.61-2.34,.73-1.69,.87-2.93,.4-3.49-.54-.65-1.81-.38-1.83-.38l-.17,.04-.16-.08c-.71-.34-1.28-.4-1.71-.18-.63,.32-.93,1.21-1.07,1.91-.15,.9-.7,1.71-1.5,2.18-3.06,1.67-7.38-.75-8.76-1.61l-2.67,4.08Z" fill="#002346"></path>
    </g>
    <g>
      <path d="M286.6,342.09l.59,10.2c.02,.36,.15,.71,.38,1,3.56,4.28,8.46,7.23,13.9,8.4,0,0,6.6,1,7.57-5.16l-.88-15.72s-9,9.99-21.56,1.28Z" fill="#f2b3c1"></path>
      <path d="M302.42,362.25c-.61,0-1.01-.06-1.03-.06-5.55-1.19-10.59-4.23-14.21-8.57-.3-.38-.47-.82-.49-1.29l-.65-11.22,.84,.58c12.04,8.35,20.55-.81,20.9-1.2l.8-.89,.95,16.97v.05c-.8,5.04-5.11,5.63-7.12,5.63Zm-15.27-19.18l.53,9.2c.01,.26,.11,.51,.27,.72,3.47,4.16,8.31,7.08,13.61,8.22,.22,.03,6.06,.83,6.96-4.7l-.82-14.59c-2.47,2.15-10.35,7.65-20.56,1.15Z" fill="#002346"></path>
    </g>
    <g>
      <rect x="273.77" y="283.4" width="44.28" height="64.51" rx="22.09" ry="22.09" transform="translate(-85.46 111.31) rotate(-18.67)" fill="#f2b3c1"></rect>
      <path d="M299.14,347.9c-9.43,0-18.24-5.95-21.42-15.36l-6.51-19.26c-1.93-5.72-1.52-11.84,1.16-17.25,2.68-5.41,7.3-9.45,13.02-11.38l.1-.03c5.72-1.93,11.85-1.52,17.25,1.16,5.41,2.68,9.45,7.3,11.38,13.02l6.51,19.26c1.93,5.72,1.52,11.84-1.16,17.25-2.68,5.41-7.3,9.45-13.02,11.38l-.1,.03c-2.39,.81-4.82,1.19-7.21,1.19Zm-6.41-63.49c-2.33,0-4.66,.38-6.93,1.15l-.1,.03c-5.47,1.85-9.88,5.71-12.44,10.88-2.56,5.17-2.95,11.02-1.1,16.49l6.51,19.26c3.81,11.28,16.09,17.35,27.36,13.54l.1-.03c5.46-1.85,9.88-5.71,12.44-10.88,2.56-5.17,2.95-11.02,1.1-16.49l-6.51-19.26c-1.85-5.46-5.71-9.88-10.88-12.44-3.02-1.5-6.28-2.25-9.56-2.25Z" fill="#002346"></path>
    </g>
    <g>
      <ellipse cx="273.89" cy="326.34" rx="4.79" ry="7.1" transform="translate(-97.27 117.17) rotate(-20.59)" fill="#f2b3c1"></ellipse>
      <path d="M275.23,333.69c-2.43,0-5.05-2.19-6.29-5.49-1.47-3.92-.45-7.95,2.28-8.97,1.36-.51,2.91-.22,4.37,.82,1.4,.99,2.56,2.57,3.26,4.44,1.47,3.92,.45,7.95-2.28,8.97-.43,.16-.88,.24-1.34,.24Zm-2.65-13.71c-.35,0-.69,.06-1.01,.18-2.21,.83-2.97,4.28-1.69,7.69,1.28,3.41,4.12,5.5,6.34,4.67,2.21-.83,2.97-4.28,1.69-7.69-.63-1.68-1.66-3.09-2.9-3.97-.81-.58-1.65-.88-2.43-.88Z" fill="#002346"></path>
    </g>
    <g>
      <path d="M269.59,321.29s-1.19-3.52-2.79-7.53c0,0-8.22-15,0-23.66,0,0,27.87-17.44,38.29-9,0,0,11.83,12.83,2.81,16.24,0,0-13,2.59-23.16,1.36-2.91-.34-5.76,1.03-7.31,3.51-1.92,3.08-3.34,8.59-2,18.4,.04-.02-3.7-3.15-5.84,.68Z" fill="#002346"></path>
      <path d="M269.48,322.52l-.36-1.07s-1.2-3.55-2.78-7.5c-.32-.57-8.27-15.37,.1-24.19l.1-.08c1.15-.72,28.29-17.53,38.87-8.96,.36,.38,7.48,8.18,6.24,13.43-.4,1.69-1.6,2.92-3.57,3.67-.21,.05-13.28,2.61-23.4,1.39-2.7-.3-5.38,.97-6.83,3.28-2.36,3.78-3.02,10.02-1.93,18.05,0,0,0,0,0,.01h0s0,0,0,0l-.5,.07-.36,.34s-1.5-1.26-3.02-1.04c-.81,.12-1.49,.67-2.02,1.62l-.55,.98Zm-2.36-32.03c-7.8,8.3,.04,22.88,.12,23.03,1.12,2.79,2.04,5.35,2.5,6.67,1.1-1.31,2.42-1.42,3.41-1.24,.52,.09,1.13,.34,1.65,.62-.94-7.84-.19-13.76,2.21-17.62,1.65-2.64,4.71-4.1,7.79-3.74,9.96,1.2,22.88-1.33,23-1.35,1.58-.61,2.55-1.57,2.87-2.94,1.12-4.73-5.88-12.4-5.95-12.47-9.76-7.9-36.23,8.21-37.6,9.05Z" fill="#0d2445"></path>
    </g>
    <g>
      <path d="M310.4,295.6s2-2,0-6.53c0,0,6.54-3.91,7.83,7.21s-.35,13.66-.35,13.66c0,0-1.07-5.13-7.48-14.34Z" fill="#002346"></path>
      <path d="M317.64,311.24l-.25-1.19c-.01-.05-1.14-5.17-7.4-14.16l-.24-.34,.29-.29c.08-.09,1.71-1.88-.1-5.98l-.18-.4,.38-.23c.1-.06,2.43-1.43,4.74-.29,2.06,1.02,3.36,3.67,3.84,7.87,1.3,11.17-.36,13.88-.43,13.99l-.66,1.02Zm-6.62-15.62c4.24,6.15,6.1,10.44,6.86,12.6,.33-1.73,.62-5.27-.15-11.88-.44-3.79-1.58-6.24-3.29-7.08-1.33-.66-2.74-.22-3.4,.06,1.41,3.52,.48,5.55-.02,6.3Z" fill="#0d2445"></path>
    </g>
    <g>
      <path d="M250.03,397.21l23.86,5.07s9.69-38.13-2.07-44c0,0-10.68-8.28-16.35,14,0-.07-4.14,16.59-5.44,24.93Z" fill="#4A92C3"></path>
      <path d="M274.26,402.87l-24.79-5.27,.07-.47c.68-4.34,2.12-10.89,3.21-15.62,1.46-6.35,1.97-8.58,2.3-9.34h-.05c2.24-8.82,5.54-14.03,9.79-15.49,3.97-1.36,7.21,1.1,7.35,1.2,11.9,5.93,2.65,42.95,2.25,44.52l-.12,.47Zm-23.66-6.05l22.92,4.87c1.05-4.36,8.66-37.68-1.92-42.96-.11-.08-3.05-2.29-6.51-1.09-3.86,1.33-7.02,6.44-9.14,14.77l-.11,.43h0c-.65,2.59-4.01,16.4-5.24,23.98Z" fill="#002346"></path>
    </g>
    <g>
      <path d="M326.73,441.93s-.3-4.7,2.86-4.41c0,0,1.88-.17,1.88,2.2,0,0,2.83-2.33,3.86,1,0,0,1.92-1.41,2.7,1.2,0,0,2.61-2.28,2.93,1.31,0,0-.93,9.85-3.09,9.19,0,0-1.82,0-.93-5.18,0,0-1,5.5-3.34,4,0,0-.8-.4-.34-4.28,0,0-1.13,5.39-3.67,3.27,0,0-3.51,2.52-2.87-1.47l-.08-4.08s-7.27,1.46-5.31-.82l5.4-1.93Z" fill="#f2b3c1"></path>
      <path d="M338.08,452.96c-.1,0-.2-.01-.3-.04-.18-.02-.55-.12-.9-.53-.33-.39-.54-.96-.63-1.71-.32,.53-.72,.97-1.21,1.18-.38,.16-.99,.26-1.71-.2-.24-.12-.58-.52-.68-1.75-.35,.55-.8,1.02-1.36,1.22-.4,.14-1,.19-1.72-.29-.61,.38-1.85,1.01-2.71,.47-.65-.4-.85-1.26-.64-2.63l-.07-3.4c-2.03,.37-4.95,.7-5.54-.31-.17-.28-.24-.76,.34-1.44l.09-.1,5.19-1.85c0-.83,.13-2.78,1.23-3.84,.57-.55,1.31-.79,2.18-.72,0,0,.86-.07,1.55,.56,.35,.32,.58,.75,.7,1.27,.57-.3,1.39-.58,2.19-.34,.66,.2,1.17,.7,1.53,1.5,.38-.15,.9-.26,1.43-.08,.52,.17,.94,.58,1.23,1.21,.5-.3,1.25-.6,1.94-.32,.71,.29,1.13,1.08,1.25,2.37-.13,1.46-.86,8.33-2.68,9.54-.22,.15-.46,.22-.7,.22Zm-1.63-5.8l.98,.17c-.5,2.9-.11,3.98,.17,4.36,.15,.21,.29,.23,.29,.23l.12,.02s.1,.02,.2-.04c1.1-.74,1.96-5.74,2.25-8.71-.08-.76-.3-1.31-.63-1.44-.44-.17-1.19,.3-1.48,.55l-.59,.51-.22-.74c-.14-.46-.39-1.03-.84-1.18-.5-.17-1.08,.24-1.09,.24l-.57,.42-.21-.67c-.24-.78-.6-1.25-1.06-1.39-.74-.22-1.69,.38-2,.63l-.82,.67v-1.05c0-.64-.15-1.11-.45-1.39-.37-.35-.88-.32-.89-.31-.67-.05-1.12,.09-1.48,.44-.88,.85-.96,2.78-.92,3.45l.02,.38-5.62,2.01c-.13,.17-.14,.24-.14,.24,.31,.26,2.68,.14,5.05-.34l.59-.12,.09,4.68c-.21,1.37,.08,1.65,.17,1.71,.36,.22,1.34-.22,1.91-.63l.31-.23,.3,.25c.59,.49,.94,.38,1.05,.34,.87-.3,1.57-2.2,1.81-3.33l.99,.16c-.38,3.21,.14,3.82,.15,3.83,.35,.22,.59,.16,.74,.1,.88-.38,1.58-2.53,1.81-3.79Z" fill="#002346"></path>
    </g>
    <g>
      <path d="M305.39,448.07c.49-.33,.94-.92-.24-3.36,0,0-8.72-14.17-18.55-6.53,0,0-15.41-7.19-16.81-15.85l.51-20.82-16.61-3.52-1.23,20.65s-1.48,9.1,8.36,17.22c0,0,7.63,8.61,23.62,12.3,2.65,1.19,5.47,1.94,8.36,2.21,0,0,4.32,4.92,7.45,2.46,1.06,.85,2.47,1.11,3.76,.69,0,0,1.63-.95-.82-3.24,0,0-7.48-9.37-5.27-8,2.09,1.43,4.02,3.09,5.74,4.95,0,0,1.02,1.31,1.73,.84Z" fill="#f2b3c1"></path>
      <path d="M302.76,454.22c-.89,0-1.76-.26-2.51-.77-3.11,2.01-6.91-1.77-7.68-2.6-2.89-.29-5.69-1.04-8.33-2.23-15.87-3.65-23.71-12.34-23.79-12.42-9.89-8.16-8.54-17.25-8.48-17.63l1.26-21.18,17.58,3.73-.52,21.24c1.24,7.6,14.21,14.25,16.25,15.25,2.47-1.83,5.08-2.51,7.78-2.02,6.45,1.17,11.06,8.56,11.26,8.88,1.07,2.21,1.09,3.36,.09,4.04h0c-1.07,.7-2.27-.78-2.4-.95-1.37-1.49-2.91-2.86-4.56-4.08,1.02,1.54,2.99,4.15,4.87,6.52,1.04,.96,1.54,1.91,1.45,2.75-.09,.82-.7,1.19-.77,1.23l-.1,.04c-.46,.15-.94,.22-1.41,.22Zm-2.5-2.03l.31,.25c.91,.73,2.11,.97,3.22,.62,.07-.05,.23-.21,.25-.47,.03-.29-.09-.92-1.19-1.95-6.4-8.01-5.99-8.47-5.69-8.81,.23-.26,.58-.26,1.02,.02,2.14,1.46,4.1,3.15,5.84,5.04,.36,.45,.91,.86,1.09,.76,.21-.14,.68-.47-.41-2.73-.02-.03-4.56-7.29-10.56-8.37-2.49-.45-4.93,.23-7.23,2.02l-.24,.19-.28-.13c-.64-.3-15.67-7.4-17.09-16.22l.49-20.5-15.64-3.31-1.2,20.07c-.02,.14-1.3,8.98,8.18,16.8,.13,.14,7.78,8.59,23.41,12.2,2.69,1.21,5.45,1.93,8.29,2.2l.2,.02,.13,.15s4.04,4.54,6.77,2.4l.31-.25Zm-2.73-9.56h0Z" fill="#002346"></path>
    </g>
    <path d="M329.59,450.77s-.05,0-.08,0c-.27-.04-.46-.3-.42-.57l1.39-8.95c.04-.27,.3-.46,.57-.42,.27,.04,.46,.3,.42,.57l-1.39,8.95c-.04,.25-.25,.42-.49,.42Z" fill="#002346"></path>
    <path d="M333.26,447.5s-.08,0-.12-.01c-.27-.07-.43-.34-.36-.61l1.32-5.27c.07-.27,.34-.43,.61-.36,.27,.07,.43,.34,.36,.61l-1.32,5.27c-.06,.23-.26,.38-.48,.38Z" fill="#002346"></path>
    <path d="M336.94,447.75s-.1,0-.15-.02c-.26-.08-.41-.36-.33-.62l1.24-4.01c.08-.26,.36-.41,.62-.33,.26,.08,.41,.36,.33,.62l-1.24,4.01c-.07,.21-.26,.35-.48,.35Z" fill="#002346"></path>
    <path d="M300.25,453.32c-.13,0-.27-.05-.37-.16l-6.4-6.88c-.19-.2-.18-.52,.03-.71,.2-.19,.52-.18,.71,.03l6.4,6.88c.19,.2,.18,.52-.03,.71-.1,.09-.22,.13-.34,.13Z" fill="#002346"></path>
    <g>
      <rect x="629.59" y="342.12" width="7.84" height="33.39" rx="3.92" ry="3.92" fill="#4A92C3"></rect>
      <path d="M633.51,376.01c-2.44,0-4.42-1.98-4.42-4.42v-25.55c0-2.44,1.98-4.42,4.42-4.42s4.42,1.98,4.42,4.42v25.55c0,2.44-1.98,4.42-4.42,4.42Zm0-33.39c-1.89,0-3.42,1.53-3.42,3.42v25.55c0,1.89,1.53,3.42,3.42,3.42s3.42-1.53,3.42-3.42v-25.55c0-1.89-1.53-3.42-3.42-3.42Z" fill="#002346"></path>
    </g>
    <g>
      <rect x="645.49" y="343.91" width="7.84" height="33.39" rx="3.92" ry="3.92" fill="#4A92C3"></rect>
      <path d="M649.41,377.8c-2.44,0-4.42-1.98-4.42-4.42v-25.55c0-2.44,1.98-4.42,4.42-4.42s4.42,1.98,4.42,4.42v25.55c0,2.44-1.98,4.42-4.42,4.42Zm0-33.39c-1.89,0-3.42,1.53-3.42,3.42v25.55c0,1.89,1.53,3.42,3.42,3.42s3.42-1.53,3.42-3.42v-25.55c0-1.89-1.53-3.42-3.42-3.42Z" fill="#002346"></path>
    </g>
    <g>
      <rect x="660.22" y="348.61" width="7.84" height="33.39" rx="3.92" ry="3.92" fill="#4A92C3"></rect>
      <path d="M664.14,382.5c-2.44,0-4.42-1.98-4.42-4.42v-25.55c0-2.44,1.98-4.42,4.42-4.42s4.42,1.98,4.42,4.42v25.55c0,2.44-1.98,4.42-4.42,4.42Zm0-33.39c-1.89,0-3.42,1.53-3.42,3.42v25.55c0,1.89,1.53,3.42,3.42,3.42s3.42-1.53,3.42-3.42v-25.55c0-1.89-1.53-3.42-3.42-3.42Z" fill="#002346"></path>
    </g>
    <g>
      <ellipse cx="467.02" cy="235.45" rx="16" ry="14.5" transform="translate(-55.16 265.06) rotate(-30)" fill="#002346"></ellipse>
      <path d="M465.72,250.85c-1.17,0-2.33-.12-3.48-.37-4.13-.89-7.5-3.3-9.51-6.77-4.14-7.16-1.09-16.69,6.79-21.24,3.81-2.2,8.17-2.92,12.28-2.04,4.13,.89,7.5,3.3,9.51,6.78,2.01,3.48,2.4,7.61,1.11,11.62-1.29,4-4.09,7.42-7.9,9.61-2.75,1.59-5.78,2.4-8.8,2.41Zm2.6-29.79c-2.85,0-5.71,.77-8.3,2.27-7.4,4.27-10.28,13.19-6.42,19.88,1.87,3.23,5.01,5.47,8.86,6.3,3.86,.84,7.97,.15,11.57-1.92,3.59-2.08,6.24-5.29,7.45-9.05,1.2-3.75,.84-7.59-1.03-10.82h0c-1.86-3.23-5.01-5.47-8.86-6.3-1.07-.23-2.17-.35-3.27-.35Z" fill="#0d2445"></path>
    </g>
    <g>
      <ellipse cx="491.76" cy="232.19" rx="14.5" ry="21.47" transform="translate(-20.15 415.73) rotate(-45)" fill="#002346"></ellipse>
      <path d="M498.64,251.01c-1.12,0-2.29-.12-3.49-.35-4.9-.95-9.87-3.74-14-7.87s-6.92-9.09-7.87-14c-.96-4.97,.08-9.29,2.94-12.14,2.86-2.86,7.17-3.9,12.14-2.94,4.9,.95,9.87,3.74,14,7.87,8.57,8.57,10.78,20.29,4.93,26.14h0c-2.17,2.17-5.17,3.29-8.65,3.29Zm-13.76-36.65c-3.22,0-5.98,1.02-7.95,3-2.62,2.62-3.56,6.61-2.67,11.25,.91,4.71,3.61,9.49,7.59,13.48s8.77,6.68,13.48,7.59c4.64,.9,8.63-.05,11.25-2.67,5.46-5.46,3.25-16.55-4.93-24.73-3.98-3.99-8.77-6.68-13.48-7.59-1.14-.22-2.24-.33-3.3-.33Z" fill="#0d2445"></path>
    </g>
    <g>
      <ellipse cx="504.67" cy="253.17" rx="7.22" ry="5.58" transform="translate(241.13 752.5) rotate(-88.82)" fill="#f2b3c1"></ellipse>
      <path d="M504.62,260.89c-1.21,0-2.4-.46-3.4-1.32-1.54-1.33-2.5-3.46-2.61-5.84h0c-.21-4.23,2.33-7.94,5.66-8.27,1.36-.13,2.74,.33,3.86,1.3,1.54,1.33,2.5,3.46,2.61,5.84,.21,4.23-2.33,7.94-5.66,8.27-.16,.01-.31,.02-.46,.02Zm.12-14.45c-.13,0-.25,0-.38,.02-2.81,.27-4.94,3.51-4.76,7.22h0c.1,2.11,.93,3.98,2.27,5.13,.93,.8,2,1.17,3.11,1.06,2.81-.27,4.94-3.51,4.76-7.22-.1-2.11-.93-3.98-2.27-5.13-.82-.71-1.76-1.08-2.73-1.08Z" fill="#002346"></path>
    </g>
    <g>
      <path d="M364.52,326.45l-5.1-24.31c-.18-.84,.69-1.52,1.46-1.13,2.29,1.15,5.96,3.69,6.64,8.44,0,0,4.43,5,4.21,8.5l.79,8.5" fill="#f2b3c1"></path>
      <path d="M364.52,326.95c-.23,0-.44-.16-.49-.4l-5.1-24.31c-.12-.58,.09-1.16,.56-1.52,.47-.36,1.08-.42,1.61-.16,2.25,1.13,6.12,3.75,6.89,8.67,.68,.79,4.45,5.34,4.24,8.75l.78,8.42c.03,.27-.18,.52-.45,.54-.28,.02-.52-.18-.54-.45l-.79-8.5c.2-3.33-4.05-8.17-4.09-8.21-.06-.07-.11-.16-.12-.26-.65-4.57-4.27-7.02-6.37-8.07-.18-.09-.39-.07-.55,.05-.16,.13-.24,.32-.19,.53l5.1,24.31c.06,.27-.12,.54-.39,.59-.03,0-.07,.01-.1,.01Z" fill="#002346"></path>
    </g>
    <path d="M356.07,316c-.18,0-.35-.09-.44-.26-.13-.24-.04-.55,.2-.68l5.66-3.12c.24-.14,.55-.05,.68,.2,.13,.24,.04,.55-.2,.68l-5.66,3.12c-.08,.04-.16,.06-.24,.06Z" fill="#0d2445"></path>
    <path d="M356.69,321.46c-.19,0-.38-.11-.46-.3-.11-.25,0-.55,.26-.66l5.83-2.51c.25-.11,.55,0,.66,.26,.11,.25,0,.55-.26,.66l-5.83,2.51c-.06,.03-.13,.04-.2,.04Z" fill="#0d2445"></path>
    <path d="M358.97,326.33c-.2,0-.39-.12-.47-.32-.1-.26,.03-.55,.29-.65l5.03-1.95c.26-.1,.55,.03,.65,.29s-.03,.55-.29,.65l-5.03,1.95c-.06,.02-.12,.03-.18,.03Z" fill="#0d2445"></path>
    <path d="M353.52,291.18c-.13,0-.26-.05-.36-.15-3.99-4.12-5.83-7.71-5.46-10.66,.3-2.35,1.92-3.37,1.98-3.41,.24-.14,.54-.07,.69,.17,.14,.24,.07,.54-.16,.69-.07,.04-1.29,.85-1.52,2.71-.22,1.81,.51,4.98,5.19,9.81,.19,.2,.19,.51-.01,.71-.1,.09-.22,.14-.35,.14Z" fill="#0d2445"></path>
    <g>
      <circle cx="351.02" cy="275.95" r="3" fill="#fff"></circle>
      <path d="M351.02,279.45c-1.93,0-3.5-1.57-3.5-3.5s1.57-3.5,3.5-3.5,3.5,1.57,3.5,3.5-1.57,3.5-3.5,3.5Zm0-6c-1.38,0-2.5,1.12-2.5,2.5s1.12,2.5,2.5,2.5,2.5-1.12,2.5-2.5-1.12-2.5-2.5-2.5Z" fill="#0d2445"></path>
    </g>
    <g>
      <rect x="183.02" y="244.79" width="17" height="67.33" rx="8.5" ry="8.5" transform="translate(27.02 -16.77) rotate(5.39)" fill="#C2E3F3"></rect>
      <path d="M189.17,312.51c-.29,0-.57-.01-.86-.04-4.94-.47-8.58-4.87-8.11-9.81l4.73-50.11c.47-4.94,4.87-8.56,9.81-8.12,4.94,.47,8.58,4.87,8.11,9.81l-4.73,50.11c-.23,2.39-1.37,4.56-3.22,6.09-1.63,1.35-3.63,2.07-5.72,2.07Zm4.71-67.11c-4.08,0-7.57,3.11-7.96,7.25l-4.73,50.11c-.41,4.39,2.82,8.3,7.21,8.72,2.13,.2,4.21-.44,5.85-1.8,1.65-1.36,2.66-3.29,2.86-5.41l4.73-50.11c.41-4.39-2.82-8.3-7.21-8.72-.25-.02-.51-.04-.76-.04Z" fill="#002346"></path>
    </g>
    <g>
      <circle cx="262.52" cy="486.45" r="8" fill="#C2E3F3"></circle>
      <path d="M262.52,494.95c-4.69,0-8.5-3.81-8.5-8.5s3.81-8.5,8.5-8.5,8.5,3.81,8.5,8.5-3.81,8.5-8.5,8.5Zm0-16c-4.14,0-7.5,3.36-7.5,7.5s3.36,7.5,7.5,7.5,7.5-3.36,7.5-7.5-3.36-7.5-7.5-7.5Z" fill="#002346"></path>
    </g>
    <g>
      <circle cx="262.52" cy="486.45" r="3" fill="#fff"></circle>
      <path d="M262.52,489.95c-1.93,0-3.5-1.57-3.5-3.5s1.57-3.5,3.5-3.5,3.5,1.57,3.5,3.5-1.57,3.5-3.5,3.5Zm0-6c-1.38,0-2.5,1.12-2.5,2.5s1.12,2.5,2.5,2.5,2.5-1.12,2.5-2.5-1.12-2.5-2.5-2.5Z" fill="#002346"></path>
    </g>
    <path d="M653.74,585.95c-11.73,0-21.28-9.55-21.28-21.28v-189.43c0-.28,.22-.5,.5-.5s.5,.22,.5,.5v189.43c0,11.18,9.1,20.28,20.28,20.28s20.28-9.1,20.28-20.28v-185.04c0-.28,.22-.5,.5-.5s.5,.22,.5,.5v185.04c0,11.73-9.55,21.28-21.28,21.28Z" fill="#002346"></path>
    <path d="M670.74,588.95c-11.73,0-21.28-9.55-21.28-21.28v-189.43c0-.28,.22-.5,.5-.5s.5,.22,.5,.5v189.43c0,11.18,9.1,20.28,20.28,20.28s20.28-9.1,20.28-20.28v-188.04c0-.28,.22-.5,.5-.5s.5,.22,.5,.5v188.04c0,11.73-9.55,21.28-21.28,21.28Z" fill="#002346"></path>
    <path d="M684.74,592.95c-11.73,0-21.28-9.55-21.28-21.28v-189.43c0-.28,.22-.5,.5-.5s.5,.22,.5,.5v189.43c0,11.18,9.1,20.28,20.28,20.28s20.28-9.1,20.28-20.28v-196.04c0-.28,.22-.5,.5-.5s.5,.22,.5,.5v196.04c0,11.73-9.55,21.28-21.28,21.28Z" fill="#002346"></path>
  </g>
  <g>
    <g>
      <path d="M225.13,540.21s19.49-16.39,41.61-.44c0,0,13.89,10.8,4.63,20.06,0,0-9.77,6.69-24.18-4.63,0,0-15.31-12.5-22.06-14.99Z" fill="#7cd295"></path>
      <path d="M263.55,562.27c-4.28,0-10.02-1.43-16.68-6.66-.16-.13-15.33-12.48-21.92-14.92l-.84-.31,.68-.57c.2-.17,20.05-16.46,42.25-.46,.32,.25,7.58,5.97,8.01,12.82,.18,2.94-.93,5.64-3.32,8.03-.1,.07-3.12,2.07-8.19,2.07Zm-37.38-22.2c7.07,3.11,20.75,14.24,21.35,14.73,13.94,10.95,23.46,4.67,23.56,4.6,2.09-2.1,3.1-4.53,2.94-7.16-.4-6.38-7.52-12.01-7.6-12.06-19.2-13.84-36.6-2.77-40.25-.11Z" fill="#002346"></path>
    </g>
    <g>
      <path d="M203.59,532.2s21.48-29.99,8.62-59.31c0,0-14.4-28.81,2.57-37.56,0,0,21.09-8.75,32.41,22.12,0,0,15.17,45.05-43.6,74.74Z" fill="#7cd295"></path>
      <path d="M201.93,533.61l1.23-1.72c.21-.3,21.16-30.09,8.57-58.8-.13-.27-14.42-29.35,2.81-38.22,.34-.14,7.47-3.02,15.77,.62,7.42,3.25,13.26,10.58,17.37,21.78,.04,.13,3.8,11.59,.26,26.54-3.27,13.77-13.57,33.42-44.11,48.85l-1.89,.95Zm19.67-98.9c-3.91,0-6.59,1.08-6.63,1.1-16.29,8.39-2.45,36.56-2.31,36.84,11.12,25.35-3.35,51.44-7.57,58.18,28.8-15.09,38.65-33.94,41.81-47.21,3.5-14.67-.18-25.9-.21-26.01-4-10.91-9.66-18.04-16.8-21.18-3.01-1.32-5.88-1.73-8.29-1.73Z" fill="#002346"></path>
    </g>
    <g>
      <path d="M148.98,445.78c-5.33,2.63-8.84,8.04-8.75,13.98,.11,7.43,4.66,17.65,26.19,23.42,0,0,25.24,6.25,28.05,24.99,0,0,6.96-23.22-4.91-45.39-4.55-8.49-12.12-15.06-21.34-17.86-5.79-1.76-12.7-2.36-19.24,.86Z" fill="#7cd295"></path>
      <path d="M194.3,510.54l-.34-2.29c-2.73-18.17-27.42-24.5-27.67-24.57-21.77-5.82-26.47-16.22-26.58-23.91-.09-6.03,3.46-11.71,9.04-14.46h0c5.7-2.81,12.3-3.11,19.62-.89,9.2,2.79,16.89,9.22,21.65,18.11,11.84,22.11,5.02,45.55,4.95,45.79l-.67,2.22Zm-35.16-66.55c-3.56,0-6.88,.75-9.93,2.25h0c-5.22,2.57-8.54,7.88-8.46,13.51,.11,7.34,4.67,17.27,25.8,22.92,.24,.06,23.53,6.02,27.96,23.12,1.35-6.31,4.11-24.99-5.41-42.77-4.63-8.65-12.1-14.9-21.04-17.61-3.12-.95-6.1-1.42-8.93-1.42Z" fill="#002346"></path>
    </g>
    <g>
      <path d="M147.78,522.91c1.3,2.47,3.7,5.22,7.83,8.11,0,0,16.25,9.42,20.47,22.72,0,0-.41-21.69-12.75-38.15,0,0-1.07-2.03-3.27-3.61-7.27-5.24-16.44,3-12.27,10.93Z" fill="#7cd295"></path>
      <path d="M176.67,557.29l-1.08-3.4c-4.11-12.95-20.08-22.33-20.24-22.42-3.85-2.7-6.54-5.49-8.03-8.32h0c-2.33-4.43-.64-8.78,2.06-11.13,3.2-2.78,7.51-2.97,10.97-.47,2.27,1.64,3.38,3.7,3.43,3.79,12.26,16.34,12.81,38.16,12.81,38.38l.07,3.57Zm-21.47-46.45c-2.05,0-3.88,.87-5.13,1.96-2.22,1.93-4.03,5.66-1.82,9.86h0c1.41,2.68,3.99,5.35,7.67,7.93,.58,.33,13.96,8.2,19.42,19.81-.66-6.7-3.16-22.17-12.41-34.51-.05-.09-1.09-2.01-3.16-3.5-1.54-1.11-3.1-1.55-4.56-1.55Z" fill="#002346"></path>
    </g>
    <g>
      <polygon points="167.45 574.24 170.18 628 215.81 628 218.89 574.75 167.45 574.24" fill="#fff"></polygon>
      <path d="M215.81,628.52h-45.62c-.28,0-.5-.22-.52-.49l-2.73-53.76c0-.14,.04-.28,.14-.39,.1-.1,.22-.16,.38-.16l51.45,.51c.14,0,.28,.06,.37,.17,.1,.1,.15,.24,.14,.38l-3.09,53.25c-.02,.27-.24,.49-.52,.49Zm-45.13-1.04h44.64l3.03-52.22-50.35-.5,2.68,52.72Z" fill="#002346"></path>
    </g>
    <path d="M202.95,574.5s-.03,0-.04,0c-.29-.02-.5-.27-.48-.56,.02-.21,1.78-21.44,16.38-31.32,8.64-5.85,19.98-6.64,33.68-2.32,.27,.09,.43,.38,.34,.65s-.37,.43-.65,.34c-13.39-4.21-24.42-3.47-32.78,2.19-14.18,9.6-15.91,30.33-15.93,30.54-.02,.27-.25,.48-.52,.48Z" fill="#002346"></path>
    <path d="M195.02,574.14c-.23,0-.43-.15-.5-.38-8.08-28.9,11.49-45.65,15.5-48.72,1.19-.91,2.6-2,3.95-3.17,35.55-30.59,14.98-64.84,14.77-65.18-.15-.24-.08-.56,.17-.71,.25-.15,.56-.08,.71,.17,.22,.35,21.26,35.33-14.98,66.52-1.37,1.18-2.79,2.28-3.99,3.2-3.91,2.99-23.03,19.35-15.13,47.61,.08,.28-.08,.56-.36,.64-.05,.01-.09,.02-.14,.02Z" fill="#002346"></path>
    <path d="M191.32,574.52c-.17,0-.34-.09-.44-.25-12.57-20.26-3.2-46.07-.02-53.5,.8-1.87,1.36-3.43,1.78-4.92,8.83-31.8-18.01-51.1-18.28-51.29-.23-.16-.29-.49-.13-.72,.16-.23,.49-.29,.72-.13,.28,.2,27.71,19.9,18.68,52.42-.42,1.53-1,3.13-1.82,5.05-3.12,7.31-12.36,32.71-.05,52.55,.15,.24,.08,.56-.17,.71-.09,.05-.18,.08-.27,.08Z" fill="#002346"></path>
    <path d="M178.1,574.2s-.01,0-.02,0c-.29-.01-.51-.25-.5-.54,1.36-33.78-18.45-47.22-18.65-47.35-.24-.16-.31-.48-.15-.72,.16-.24,.48-.31,.72-.15,.21,.13,20.51,13.86,19.12,48.26-.01,.28-.24,.5-.52,.5Z" fill="#002346"></path>
  </g>
</svg>
